<svg xmlns="http://www.w3.org/2000/svg" xmlns:xlink="http://www.w3.org/1999/xlink" viewBox="0 0 600 300"><clipPath id="c"><path d="M0 0v75h350v75h-50zm300 0H150v200H0v-50z"/></clipPath><clipPath id="b"><path d="M0 0h300v150H0z"/></clipPath><path fill="#fff" d="M0 0h600v300H0z"/><path id="a" fill="#012169" d="M600 260.88c-6.723 4.045-12.499 13.498-30.36 13.498-35.711 0-44.641-19.902-71.427-19.902-17.856 0-26.785 19.902-44.641 19.902-35.715 0-44.643-19.902-71.429-19.902-17.857 0-26.786 19.902-44.643 19.902-35.714 0-44.643-19.902-71.428-19.902-17.858 0-26.786 19.902-44.643 19.902-35.714 0-44.643-19.902-71.429-19.902-17.858 0-26.786 19.902-44.643 19.902-35.714 0-44.643-19.902-71.428-19.902-17.858 0-23.215 14.182-33.929 14.182v25.621c10.714 0 16.071-14.181 33.929-14.181 26.785 0 35.714 19.901 71.428 19.901 17.857 0 26.785-19.901 44.643-19.901 26.785 0 35.715 19.901 71.429 19.901 17.857 0 26.785-19.901 44.643-19.901 26.785 0 35.714 19.901 71.428 19.901 17.857 0 26.786-19.901 44.643-19.901 26.786 0 35.714 19.901 71.429 19.901 17.856 0 26.785-19.901 44.641-19.901 26.786 0 35.716 19.901 71.427 19.901 17.861 0 23.637-5.64 30.36-9.684z"/><use xlink:href="#a" transform="translate(0 -49.753)"/><use xlink:href="#a" transform="translate(0 -99.507)"/><use xlink:href="#a" transform="translate(0 -149.26)"/><use xlink:href="#a" transform="translate(0 -199.01)"/><use xlink:href="#a" transform="translate(0 -248.77)"/><path fill="#fff" d="M0 0h290v152H0z"/><g clip-path="url(#b)"><path fill="#012169" d="M0 0h300v150H0z"/><path stroke="#fff" stroke-width="30" d="m0 0 300 150m0-150L0 150"/><path stroke="#c8102e" stroke-width="20" d="m0 0 300 150m0-150L0 150" clip-path="url(#c)"/><path stroke="#fff" stroke-width="50" d="M150 0v200M0 75h350"/><path stroke="#c8102e" stroke-width="30" d="M150 0v200M0 75h350"/></g><path fill="#a24300" stroke="#000" stroke-width=".75" d="m446.52 79.222-2.07 204.16c-.279 11.585 10.346 11.631 10.346 0l-2.07-204.16z"/><g transform="matrix(.43857 0 0 .37683 122.2 25.058)"><g transform="matrix(-.31451 .10485 -.13829 -.30324 1046.5 373.32)"><g id="d" fill="none" stroke="#000"><path fill="#006d00" stroke-width="4.453" d="m673.23 325.16 17.717 70.866 35.433-53.15-17.717 88.583 35.433-35.433-35.433 88.582 35.433-35.433-35.433 88.583 35.433-35.433-35.433 106.3 35.433-35.433-35.433 106.3 35.433-35.433-35.433 106.3-17.716 53.151-17.717 17.72-17.717-17.72-17.716-53.151-35.433-106.3 35.433 35.433-35.433-106.3 35.433 35.433-35.433-106.3 35.433 35.433-35.433-88.583 35.433 35.433-35.433-88.582 35.433 35.433-17.717-88.583 35.433 53.15z"/><path d="M673.23 325.16v496.07m-70.86-177.17 70.866 106.3 70.866-106.3"/><path d="m602.37 573.19 70.866 106.3 70.866-106.3"/><path d="m602.37 502.33 70.866 106.3 70.866-106.3"/><path d="m602.37 449.18 70.866 88.583 70.866-88.583"/><path d="m602.37 396.03 70.866 88.582 70.866-88.582"/><path d="m620.08 342.88 53.15 106.3 53.15-106.3"/></g></g><use xlink:href="#d" transform="matrix(.23652 -.28186 .29496 .22762 354.57 204.65)"/><use xlink:href="#d" transform="matrix(.15164 .33524 -.3329 .16731 907.54 -153.47)"/><use xlink:href="#d" transform="matrix(-.20952 .30246 -.3147 -.19945 1141.4 167.58)"/><use xlink:href="#d" transform="matrix(-.20772 -.25838 .23618 -.23515 689.99 567.28)"/><g transform="matrix(-.36218 -.09947 -.20981 .31773 1222.4 -24.229)"><g id="e" fill="none" stroke="#000"><path fill="#006d00" stroke-width="3.336" d="m744.09 425.19 28.643 70.866 42.223-53.15-10.184 88.583 27.9-35.433-17.716 88.582 25.249-35.433-25.249 88.583 35.433-35.433-35.433 106.3 35.433-35.433-35.433 106.3 35.433-35.433-35.433 106.3-17.716 53.151-17.717 17.72-17.717-17.72-17.716-53.151-35.433-106.3 35.433 35.433-35.433-106.3 35.433 35.433-35.433-106.3 35.433 35.433-45.617-88.583 45.617 35.433-53.15-88.582 42.966 35.433-25.25-88.583 35.433 53.15z"/><path d="m750.67 460.63 28.855 124.02v336.62"/><path d="m719.69 761.81 59.833 88.582 60.682-88.582"/><path d="m717.99 690.94 61.53 88.582 60.682-88.582"/><path d="m718.84 620.08 60.682 88.582 59.833-88.582"/><path d="m716.3 566.92 63.228 70.866 53.149-70.866"/><path d="m708.66 513.78 70.866 70.865 45.406-70.865"/><path d="m719.58 469.22 53.15 86.886 35.327-95.478"/></g></g><use xlink:href="#e" transform="matrix(.36088 .10411 .01321 .38052 452.76 -239.27)"/><g fill="none" stroke="#000"><path fill="#006d00" stroke-width="3.523" d="m354.33 531.5 88.583 88.583 17.716-53.149v88.582l35.433-35.433-17.716 88.583 35.432-35.434-17.716 88.584 35.433-35.433-17.716 106.3 35.433-35.433-35.433 106.3 35.433-35.433-17.717 106.3-17.716 53.151-17.717 17.72-17.717-17.72-17.716-53.151-53.15-82.294 35.434 11.429-35.433-106.3 35.433 35.433-53.15-106.3 35.433 35.433-53.15-88.584 53.15 35.434-70.866-88.583 53.149 35.433-70.866-70.866 70.866 35.433z" transform="matrix(.04613 -.36474 .32602 .0648 386 315.21)"/><path d="m378.96 560.02 63.952 95.497 17.716 53.15 8.859 45.205 8.858 78.811 9.315 70.866 8.401 141.74" transform="matrix(.04613 -.36474 .32602 .0648 386 315.21)"/><path d="m425.2 903.54 63.665 70.866 50.749-88.583" transform="matrix(.04613 -.36474 .32602 .0648 386 315.21)"/><path d="m417.08 814.96 70.579 88.583 50.75-88.583" transform="matrix(.04613 -.36474 .32602 .0648 386 315.21)"/><path d="m407.48 752.44 70.867 80.235 45.948-88.583M372.05 637.8l88.583 70.866 25.831-70.866" transform="matrix(.04613 -.36474 .32602 .0648 386 315.21)"/><path d="m360.62 602.36 82.296 53.149 10.515-53.149m-63.671 88.58 81.095 70.866 33.946-70.866" transform="matrix(.04613 -.36474 .32602 .0648 386 315.21)"/></g></g><path fill="#fff" d="M451.75 194.52h28.445s1.872-4.25 2.083-6.132c.253-2.261.245-2.987-.278-5.07-.54-2.158-1.326-3.64-2.678-5.082-1.275-1.36-3.072-2.203-4.911-2.662-1.641-.41-3.495-.585-4.934-.265-2.734.607-4.51 1.568-7.482 2.578-2.144.73-3.782.979-5.95 1.111-1.326.082-2.859-.275-4.295-.605zm-4.24 0h-28.446s-1.871-4.25-2.082-6.132c-.253-2.261-.245-2.987.277-5.07.541-2.158 1.327-3.64 2.679-5.082 1.275-1.36 3.071-2.203 4.91-2.662 1.641-.41 3.495-.585 4.935-.265 2.733.607 4.51 1.568 7.481 2.578 2.144.73 3.783.979 5.95 1.111 1.326.082 2.859-.275 4.296-.605z" color="#000" opacity=".995"/><path fill="#fff" d="M445.739 220.31c-4.031.052-8.062.138-12.06.411-2.953.24-6.317.513-9.19.957l-.73.137c-1.808.376-2.062 2.701-1.11 3.966 1.936 2.615 13.41 4.65 26.963 4.65 13.536 0 25.01-2.035 26.946-4.65.952-1.265.698-3.59-1.111-3.966l-.73-.137c-2.857-.444-6.237-.718-9.188-.957-4-.273-8.03-.359-12.06-.41h-3.857z"/><path d="M452.321 222.81c-1-.172-1.92-.394-2.793-.633a33 33 0 0 1-2.174-.718c.206.359.508.718 1.238.991-.587-.017-1.365.223-1.65.36.285.119 1.094.358 1.681.341-.714.274-.983.633-1.142.992a25 25 0 0 1 1.984-.667 29 29 0 0 1 2.856-.667m-10.567.049c-1-.137-1.92-.325-2.793-.547a23 23 0 0 1-2.19-.65c.19.359.507.7 1.253.957-.603 0-1.364.274-1.634.41.285.12 1.095.325 1.682.291-.698.29-.968.667-1.127 1.026.62-.257 1.27-.513 1.968-.735.889-.291 1.825-.53 2.84-.752m-10.433.549c-1-.068-1.951-.188-2.84-.342a26 26 0 0 1-2.222-.478c.222.342.556.666 1.317.855-.587.05-1.333.376-1.602.53.301.085 1.11.239 1.698.17-.683.342-.92.735-1.048 1.112a23 23 0 0 1 1.92-.89 23 23 0 0 1 2.778-.957m31.523-.376c-1 .154-1.936.325-2.81.547a19 19 0 0 0-2.19.667c.207-.36.509-.718 1.254-.957-.587-.018-1.364-.274-1.634-.41.286-.12 1.095-.326 1.682-.308-.698-.291-.968-.65-1.11-1.026.618.273 1.269.513 1.967.752.873.274 1.81.53 2.84.735m10.434.941c-1 .068-1.936.17-2.825.324-.778.137-1.524.308-2.238.496.238-.342.572-.666 1.333-.855-.603-.05-1.349-.376-1.618-.53.301-.102 1.11-.256 1.714-.17-.683-.342-.937-.735-1.064-1.112a31 31 0 0 0 1.92.89c.857.341 1.778.666 2.778.957"/><path fill="#ccc" d="M449.634 225.27c-16.155 0-25.946 1.008-25.137 1.777 5.666 2.547 16.822 3.367 25.137 3.385 8.3-.018 19.456-.838 25.122-3.385.81-.77-8.982-1.778-25.122-1.778"/><path fill="none" stroke="#000" stroke-width=".616" d="M1143.5 822.71c.319-.85-1.099-1.099-2.587-1.276-5.777-.744-12.192-1.24-17.898-1.666-8.931-.567-17.933-.744-26.935-.85h-17.26c-9.002.106-18.004.283-26.935.85-5.706.426-12.121.922-17.898 1.666-1.489.177-2.906.425-2.587 1.276" transform="matrix(.44777 0 0 .48232 -37.315 -169.712)"/><path fill="none" stroke="#000" stroke-width=".616" d="M1078.8 808.64c-9.002.106-18.004.284-26.935.85-6.592.497-14.106 1.064-20.52 1.985l-1.63.284c-4.04.78-4.608 5.6-2.481 8.222 4.324 5.423 29.948 9.64 60.215 9.64 30.23 0 55.856-4.217 60.179-9.64 2.126-2.622 1.56-7.442-2.481-8.222l-1.63-.284c-6.38-.921-13.928-1.488-20.52-1.984-8.932-.567-17.933-.745-26.935-.851h-8.613z" transform="matrix(.44777 0 0 .48232 -37.315 -169.712)"/><g stroke-width="2.417"><path fill="#c8102e" fill-rule="evenodd" d="m471.4 216.484 1.951-6.14.788-2.543 1.954-1.308 1.979-4.844.932-1.267.144-4.464s-1.367-3.166-3.483-4.303c-3.026-1.627-7.134-1.403-7.134-1.403s-.949-2.703-2.69-3.755c-1.74-1.052-3.672-1.306-5.7-1.306s-5.67 1.954-7.638 2.528c-1.023.299-3.334 1.306-3.334 1.306s-2.311-1.007-3.335-1.306c-1.968-.574-5.608-2.528-7.637-2.528s-3.897.216-5.7 1.306c-1.678 1.014-3.98 3.755-3.98 3.755s-2.637-.385-4.49.815c-2.31 1.497-3.937 4.647-3.937 4.647l.16 4.877.363 1.864 1.493 1.848 1.946 3.734 1.394 3.681 1.492 4.806z"/><path fill="none" stroke="#000" d="m1219.6 702.3 17.558-48.601 7.092-20.121 17.575-10.352 17.8-38.344 8.385-10.028 1.294-35.329s-12.298-25.061-31.33-34.06c-27.225-12.874-64.179-11.103-64.179-11.103s-8.536-21.396-24.193-29.722-33.042-10.333-51.289-10.333-50.995 15.463-68.704 20.008c-9.206 2.363-29.998 10.333-29.998 10.333s-20.792-7.97-29.998-10.333c-17.709-4.545-50.457-20.008-68.704-20.008s-35.064 1.705-51.289 10.333c-15.089 8.024-35.803 29.722-35.803 29.722s-23.717-3.051-40.379 6.45c-20.783 11.851-35.428 36.778-35.428 36.778l1.435 38.601 3.273 14.755 13.43 14.63 17.507 29.548 12.543 29.142 13.425 38.035z" transform="matrix(.11116 0 0 .12634 335.83 127.753)"/></g><g stroke-width="1.177"><g color="#000"><path fill="#fed100" d="M473.91 173.804c2.115.506 4.36 1.51 6.128 3.396 1.639 1.748 2.729 3.811 3.357 6.317.588 2.345.606 3.74.345 6.076-.337 3.005-2.053 6.021-2.053 6.021l-2.958-.568s1.782-4.047 1.983-5.84c.241-2.154.234-2.845-.264-4.828-.515-2.056-1.263-3.468-2.55-4.84-1.215-1.296-2.926-2.098-4.678-2.536-1.563-.39-3.328-.557-4.7-.252-2.603.578-4.294 1.493-7.125 2.456-2.041.694-3.602.931-5.666 1.058-1.263.077-2.723-.262-4.091-.577s-2.515-.64-2.515-.64l.77-3.182s1.094.312 2.383.608 2.899.537 3.277.514c1.946-.12 3.089-.294 4.919-.916 2.62-.891 4.474-1.878 7.433-2.543 1.994-.448 4.039-.193 6.004.276z"/><path fill="none" stroke="#000" d="M358.41 213.62c-9.019 2-18.587 5.975-26.125 13.438-6.987 6.918-11.634 15.083-14.312 25-2.507 9.282-2.583 14.802-1.469 24.045 1.434 11.893 8.75 23.83 8.75 23.83l12.611-2.25s-7.599-16.016-8.454-23.111c-1.028-8.523-.996-11.257 1.125-19.108 2.196-8.133 5.386-13.722 10.875-19.156 5.177-5.125 12.469-8.3 19.938-10.031 6.661-1.544 14.188-2.204 20.03-1 11.1 2.288 18.31 5.911 30.376 9.719 8.703 2.746 15.356 3.688 24.156 4.187 5.383.306 11.605-1.037 17.438-2.28s10.719-2.532 10.719-2.532l-3.281-12.594s-4.662 1.234-10.156 2.406-12.358 2.123-13.97 2.031c-8.297-.47-13.168-1.163-20.969-3.625-11.169-3.524-19.074-7.431-31.688-10.062-8.499-1.773-17.217-.764-25.594 1.094z" transform="matrix(-.23459 0 0 .25269 557.988 119.825)"/></g><g fill="#fff" stroke="#000" stroke-width="1.768"><path d="M2700.2 785.03a10.489 10.66 0 1 1-20.977 0 10.489 10.66 0 1 1 20.977 0z" transform="matrix(-.15612 0 0 .16816 903.659 60.073)"/><path d="M2700.2 785.03a10.489 10.66 0 1 1-20.977 0 10.489 10.66 0 1 1 20.977 0z" transform="matrix(-.15612 0 0 .16816 904.447 55.853)"/><path d="M2700.2 785.03a10.489 10.66 0 1 1-20.977 0 10.489 10.66 0 1 1 20.977 0z" transform="matrix(-.15612 0 0 .16816 904.21 51.355)"/><path d="M2700.2 785.03a10.489 10.66 0 1 1-20.977 0 10.489 10.66 0 1 1 20.977 0z" transform="matrix(-.15612 0 0 .16816 902.61 47.11)"/><path d="M2700.2 785.03a10.489 10.66 0 1 1-20.977 0 10.489 10.66 0 1 1 20.977 0z" transform="matrix(-.15612 0 0 .16816 899.621 43.775)"/><path d="M2700.2 785.03a10.489 10.66 0 1 1-20.977 0 10.489 10.66 0 1 1 20.977 0z" transform="matrix(-.15612 0 0 .16816 895.89 41.602)"/><path d="M2700.2 785.03a10.489 10.66 0 1 1-20.977 0 10.489 10.66 0 1 1 20.977 0z" transform="matrix(-.15612 0 0 .16816 891.622 40.44)"/><path d="M2700.2 785.03a10.489 10.66 0 1 1-20.977 0 10.489 10.66 0 1 1 20.977 0z" transform="matrix(-.15612 0 0 .16816 887.247 40.667)"/><path d="M2700.2 785.03a10.489 10.66 0 1 1-20.977 0 10.489 10.66 0 1 1 20.977 0z" transform="matrix(-.15612 0 0 .16816 875.405 44.002)"/><path d="M2700.2 785.03a10.489 10.66 0 1 1-20.977 0 10.489 10.66 0 1 1 20.977 0z" transform="matrix(-.15612 0 0 .16816 883.085 41.93)"/><path d="M2700.2 785.03a10.489 10.66 0 1 1-20.977 0 10.489 10.66 0 1 1 20.977 0z" transform="matrix(-.15612 0 0 .16816 879.245 43.194)"/></g><g color="#000"><path fill="#fed100" d="M425.331 173.804c-2.116.506-4.36 1.51-6.129 3.396-1.639 1.748-2.729 3.811-3.357 6.317-.588 2.345-.606 3.74-.344 6.076.336 3.005 2.052 6.021 2.052 6.021l2.959-.568s-1.783-4.047-1.984-5.84c-.24-2.154-.233-2.845.264-4.828.515-2.056 1.264-3.468 2.551-4.84 1.215-1.296 2.925-2.098 4.677-2.536 1.563-.39 3.329-.557 4.7-.252 2.603.578 4.295 1.493 7.125 2.456 2.042.694 3.602.931 5.667 1.058 1.262.077 2.722-.262 4.09-.577s2.515-.64 2.515-.64l-.77-3.182s-1.093.312-2.382.608-2.9.537-3.277.514c-1.947-.12-3.09-.294-4.92-.916-2.62-.891-4.474-1.878-7.433-2.543-1.994-.448-4.039-.193-6.004.276"/><path fill="none" stroke="#000" d="M358.41 213.62c-9.019 2-18.587 5.975-26.125 13.438-6.987 6.918-11.634 15.083-14.312 25-2.507 9.282-2.583 14.802-1.469 24.045 1.434 11.893 8.75 23.83 8.75 23.83l12.611-2.25s-7.599-16.016-8.454-23.111c-1.028-8.523-.996-11.257 1.125-19.108 2.196-8.133 5.386-13.722 10.875-19.156 5.177-5.125 12.469-8.3 19.938-10.031 6.661-1.544 14.188-2.204 20.03-1 11.1 2.288 18.31 5.911 30.376 9.719 8.703 2.746 15.356 3.688 24.156 4.187 5.383.306 11.605-1.037 17.438-2.28s10.719-2.532 10.719-2.532l-3.281-12.594s-4.662 1.234-10.156 2.406-12.358 2.123-13.97 2.031c-8.297-.47-13.168-1.163-20.969-3.625-11.169-3.524-19.074-7.431-31.688-10.062-8.499-1.773-17.217-.764-25.594 1.094z" transform="matrix(.23459 0 0 .25269 341.253 119.825)"/></g><g fill="#fff" stroke="#000" stroke-width="1.768"><path d="M2700.2 785.03a10.489 10.66 0 1 1-20.977 0 10.489 10.66 0 1 1 20.977 0z" transform="matrix(.15612 0 0 .16816 -4.418 60.073)"/><path d="M2700.2 785.03a10.489 10.66 0 1 1-20.977 0 10.489 10.66 0 1 1 20.977 0z" transform="matrix(.15612 0 0 .16816 -5.206 55.853)"/><path d="M2700.2 785.03a10.489 10.66 0 1 1-20.977 0 10.489 10.66 0 1 1 20.977 0z" transform="matrix(.15612 0 0 .16816 -4.97 51.355)"/><path d="M2700.2 785.03a10.489 10.66 0 1 1-20.977 0 10.489 10.66 0 1 1 20.977 0z" transform="matrix(.15612 0 0 .16816 -3.37 47.11)"/><path d="M2700.2 785.03a10.489 10.66 0 1 1-20.977 0 10.489 10.66 0 1 1 20.977 0z" transform="matrix(.15612 0 0 .16816 -.381 43.775)"/><path d="M2700.2 785.03a10.489 10.66 0 1 1-20.977 0 10.489 10.66 0 1 1 20.977 0z" transform="matrix(.15612 0 0 .16816 3.351 41.602)"/><path d="M2700.2 785.03a10.489 10.66 0 1 1-20.977 0 10.489 10.66 0 1 1 20.977 0z" transform="matrix(.15612 0 0 .16816 7.618 40.44)"/><path d="M2700.2 785.03a10.489 10.66 0 1 1-20.977 0 10.489 10.66 0 1 1 20.977 0z" transform="matrix(.15612 0 0 .16816 11.993 40.667)"/><path d="M2700.2 785.03a10.489 10.66 0 1 1-20.977 0 10.489 10.66 0 1 1 20.977 0z" transform="matrix(.15612 0 0 .16816 23.835 44.002)"/><path d="M2700.2 785.03a10.489 10.66 0 1 1-20.977 0 10.489 10.66 0 1 1 20.977 0z" transform="matrix(.15612 0 0 .16816 16.155 41.93)"/><path d="M2700.2 785.03a10.489 10.66 0 1 1-20.977 0 10.489 10.66 0 1 1 20.977 0z" transform="matrix(.15612 0 0 .16816 19.995 43.194)"/></g><path fill="#fed100" stroke="#000" stroke-width=".972" d="M185.96 37.047c1.567-1.984 3.44-3.458 4.957-5.475 1.594-2.12 2.81-4.798 3.435-7.503-2.771.691-5.45 1.907-7.569 3.501-2.017 1.517-3.49 3.39-5.475 4.957V7.116c1.984 1.567 3.458 3.439 5.475 4.956 2.12 1.594 4.798 2.81 7.569 3.501-.625-2.705-1.841-5.383-3.436-7.503-1.517-2.017-3.389-3.49-4.956-5.475h28.152c-1.567 1.984-3.44 3.458-4.956 5.475-1.595 2.12-2.81 4.798-3.436 7.503 2.771-.69 5.45-1.907 7.569-3.5 2.017-1.518 3.49-3.39 5.475-4.957v25.41c-1.984-1.566-3.458-3.438-5.475-4.956-2.12-1.594-4.798-2.81-7.569-3.5.625 2.704 1.841 5.383 3.436 7.502 1.517 2.017 3.389 3.491 4.956 5.475z" transform="matrix(.28385 0 0 .30575 392.84 156.53)"/><path fill="#fff" stroke="#000" stroke-width="1.461" d="M2700.2 785.03a10.489 10.66 0 1 1-20.977 0 10.489 10.66 0 1 1 20.977 0z" transform="matrix(.1889 0 0 .20348 -58.471 2.87)"/><g stroke-width=".675"><path fill="#fed100" d="M454.172 172.733a4.497 4.844 0 1 1-8.995 0 4.497 4.844 0 1 1 8.995 0"/><path fill="none" stroke="#000" stroke-width=".649" d="M2700.2 785.03a10.489 10.66 0 1 1-20.977 0 10.489 10.66 0 1 1 20.977 0z" transform="matrix(.42877 0 0 .4544 -703.604 -183.983)"/></g><g stroke-width="1.247"><path fill="#fed100" d="M448.659 167.51v4.066h-3.775v2.07h9.472v-2.07h-3.782v-4.066z"/><path fill="none" stroke="#000" d="M195.84 28.437v17.062h-17.062v8.688h42.812v-8.688h-17.094V28.437z" transform="matrix(.22124 0 0 .23831 405.331 160.733)"/></g><g transform="matrix(.23459 0 0 .25269 403.878 167.74)"><rect width="25.322" height="71.72" x="182.33" y="34.934" fill="#fed100" fill-rule="evenodd" ry="6.386"/><rect width="25.322" height="71.72" x="182.33" y="34.934" fill="none" stroke="#000" ry="6.386"/></g><g stroke-width="1.154"><g transform="matrix(.26907 0 0 .22912 385.925 -39.102)"><rect width="7.041" height="79.256" x="221.33" y="941.22" fill="#fed100" fill-rule="evenodd" ry="3.8"/><path fill="none" stroke="#000" d="M224.85 941.22c1.95 0 3.52 1.695 3.52 3.8v71.656c0 2.105-1.57 3.8-3.52 3.8s-3.52-1.695-3.52-3.8V945.02c0-2.105 1.57-3.8 3.52-3.8z"/></g><g transform="matrix(.26907 0 0 .22912 387.157 -39.102)"><rect width="7.041" height="79.256" x="240.49" y="941.22" fill="#fed100" fill-rule="evenodd" ry="3.8"/><rect width="7.041" height="79.256" x="240.49" y="941.22" fill="none" stroke="#000" ry="3.8"/></g></g><g fill="#fff" stroke="#000" stroke-width="1.768"><path d="M2700.2 785.03a10.489 10.66 0 1 1-20.977 0 10.489 10.66 0 1 1 20.977 0z" transform="matrix(.15612 0 0 .16816 29.709 44.94)"/><path d="M2700.2 785.03a10.489 10.66 0 1 1-20.977 0 10.489 10.66 0 1 1 20.977 0z" transform="matrix(.15612 0 0 .16816 29.709 48.504)"/><path d="M2700.2 785.03a10.489 10.66 0 1 1-20.977 0 10.489 10.66 0 1 1 20.977 0z" transform="matrix(.15612 0 0 .16816 29.709 52.067)"/><path d="M2700.2 785.03a10.489 10.66 0 1 1-20.977 0 10.489 10.66 0 1 1 20.977 0z" transform="matrix(.15612 0 0 .16816 29.709 55.655)"/><path d="M2700.2 785.03a10.489 10.66 0 1 1-20.977 0 10.489 10.66 0 1 1 20.977 0z" transform="matrix(.15612 0 0 .16816 29.709 59.218)"/></g><path fill="#fed100" d="M479.026 202.548c-1.576 3.796-2.838 7.502-4.075 11.316h-50.817c-1.196-3.687-2.415-7.652-3.92-11.316 0 0 3.164 4.767 5.532 5.92 1.316.64 2.961.831 4.321.31 1.793-.686 4.178-4.19 4.178-4.19s2.144 2.704 3.6 3.414c1.368.667 2.967.694 4.466.621 1.327-.065 2.796-.118 3.89-.931 1.654-1.23 3.312-5.43 3.312-5.43s1.604 3.304 2.881 4.5c1.054.985 2.377 1.721 3.745 2.016 1.37.295 2.865.2 4.178-.31 1.78-.691 4.61-3.569 4.61-3.569s1.947 2.602 3.312 3.259c1.322.635 2.912.822 4.322.465 1.49-.378 2.744-1.541 3.889-2.638 1.022-.978 2.577-3.437 2.577-3.437z"/><path fill="none" stroke="#000" d="M-147.29 1086.9c-6.72 15.023-12.101 29.69-17.375 44.782h-216.62c-5.098-14.589-10.297-30.282-16.708-44.782 0 0 13.482 18.865 23.578 23.427 5.608 2.534 12.623 3.29 18.421 1.228 7.642-2.717 17.807-16.579 17.807-16.579s9.141 10.698 15.351 13.509c5.829 2.638 12.644 2.745 19.035 2.456 5.655-.255 11.92-.469 16.579-3.684 7.055-4.869 14.123-21.491 14.123-21.491s6.838 13.078 12.281 17.807c4.491 3.902 10.131 6.816 15.965 7.982s12.21.79 17.807-1.228c7.588-2.735 19.649-14.123 19.649-14.123s8.302 10.296 14.123 12.895c5.635 2.516 12.414 3.256 18.421 1.842 6.357-1.496 11.698-6.1 16.579-10.439 4.357-3.872 10.988-13.602 10.988-13.602z" transform="matrix(.23459 0 0 .25269 513.579 -72.098)"/><g fill="#fed100"><path d="M449.619 204.721s-1.16 1.921-1.872 2.578c-.99.912-1.64 1.46-2.911 1.892-1.269.431-3.039.673-4.367.595-1.285-.076-2.607-.477-3.765-1.081-1.006-.526-2.61-2.055-2.61-2.055-.78 1.09-1.772 1.855-2.717 2.42-1.208.724-2.402.789-3.656.716-2.55-.148-4.928-1.863-6.836-5.341a92 92 0 0 0-4.436-9.689c2.048-.78 4.434-1.196 7.081-1.332-1.076 3.268-2.193 6.451-1.798 9.08 2.224-1.793 2.943-4.236 3.71-6.658l2.585 9.807c-1.57-.296-.735-.646-4.856-1.487.826 1.677 2.716 3.748 4.8 3.952 1.402.137 2.419-.33 3.31-1.162.64-.598 1.223-1.388 1.215-2.279l-.013-1.53c-.003-.328-.378-.792-.682-.796-.29-.005-.37.502-.448.803-.155.602.156 1.273 0 1.875-.172.663-.502 1.187-1.044 1.553-.452.304-1.542.375-1.542.375l.348-1.446c.246-1.02-.673-1.812-.894-2.84-.143-.66-.221-1.399 0-2.034.238-.688.722-1.357 1.342-1.66.226-.112.498-.127.746-.108.35.027 1.044.268 1.044.268s-.199-1.034-.15-1.66c.061-.76.659-2.168.995-2.839.559-1.114 1.447-2.118 1.549-2.226.097.105 1.06 1.07 1.69 2.14.378.645.767 1.576.876 2.33.09.62.058 1.934.058 1.934s1.024-.453 1.372-.506c.247-.037.519-.042.751.051.639.257 1.164.888 1.447 1.556.261.617.23 1.36.131 2.03-.154 1.041-.722 1.846-.41 2.846l.44 1.416s-1.092.012-1.562-.258c-.564-.325-.927-.823-1.142-1.472-.195-.588-.082-1.31-.42-1.816-.149-.224-.358-.473-.647-.447-.303.028-.516.561-.529.889l-.053 1.377c-.017.423.162.863.373 1.206.515.839 1.282 1.348 2.148 1.726.937.409 1.783.566 2.794.579.844.01 2.311-.138 3.11-.43.986-.358 1.565-.813 2.327-1.575.43-.43.717-1.053.906-1.65.217-.69.139-1.877.139-1.877-.98.4-1.832.938-2.6 1.567-.869.71-1.63 1.537-2.346 2.41l-.07-11.856c1.021 1.214 1.764 2.3 2.785 3.214.86.77 1.301 1.063 2.161 1.363-.245-.953-.328-1.532-.962-2.486-.88-1.322-1.735-2.742-2.8-4.064 1.96-.352 3.919-.447 5.905-.447 1.985 0 3.944.095 5.903.447-1.064 1.322-1.92 2.742-2.799 4.064-.634.954-.717 1.533-.962 2.486.86-.3 1.301-.594 2.161-1.363 1.021-.914 1.764-2 2.785-3.214l-.07 11.856c-.717-.873-1.477-1.7-2.345-2.41a10.1 10.1 0 0 0-2.601-1.567s-.078 1.188.14 1.876c.188.598.475 1.221.905 1.65.762.763 1.341 1.218 2.326 1.577.8.29 2.267.44 3.11.429 1.012-.013 1.858-.17 2.795-.58.866-.377 1.633-.886 2.148-1.725.21-.343.39-.783.373-1.206l-.053-1.377c-.013-.328-.226-.861-.53-.889-.288-.026-.497.223-.647.447-.337.507-.224 1.228-.419 1.816-.215.65-.578 1.147-1.142 1.472-.47.27-1.562.258-1.562.258l.44-1.416c.312-1-.256-1.805-.41-2.846-.1-.67-.13-1.413.131-2.03.283-.668.808-1.299 1.447-1.556.232-.093.504-.088.75-.05.349.052 1.373.505 1.373.505s-.032-1.314.058-1.935c.11-.753.498-1.684.877-2.329.63-1.07 1.592-2.035 1.69-2.14.1.108.989 1.112 1.548 2.226.336.671.934 2.079.994 2.839.05.626-.149 1.66-.149 1.66s.693-.24 1.044-.268c.248-.019.52-.004.746.107.62.304 1.104.973 1.342 1.66.221.636.143 1.375 0 2.036-.22 1.027-1.14 1.818-.894 2.839l.348 1.446s-1.09-.07-1.542-.375c-.542-.366-.872-.89-1.044-1.553-.156-.602.155-1.273 0-1.875-.077-.301-.158-.808-.448-.803-.304.004-.68.468-.682.796l-.013 1.53c-.008.89.576 1.681 1.215 2.28.891.831 1.908 1.298 3.31 1.16 2.084-.203 3.974-2.274 4.8-3.951-4.12.841-3.286 1.19-4.856 1.487l2.586-9.807c.766 2.422 1.485 4.865 3.71 6.659.394-2.63-.723-5.813-1.8-9.08 2.648.135 5.034.55 7.082 1.331a92 92 0 0 0-4.436 9.689c-1.908 3.478-4.286 5.193-6.836 5.341-1.254.073-2.447.008-3.656-.716-.945-.565-1.937-1.33-2.717-2.42 0 0-1.604 1.53-2.61 2.055-1.158.604-2.48 1.005-3.765 1.081-1.328.078-3.098-.164-4.367-.595-1.271-.431-1.922-.98-2.911-1.892-.713-.657-1.872-2.578-1.872-2.578z"/><path d="M427.722 209.775c-2.549-.148-4.927-1.863-6.835-5.341a92 92 0 0 0-4.436-9.689c2.048-.78 4.434-1.197 7.081-1.332-1.076 3.268-2.193 6.45-1.798 9.08 2.224-1.793 2.943-4.236 3.709-6.658l2.585 9.807c-1.569-.297-.734-.646-4.855-1.487.826 1.677 2.716 3.748 4.8 3.952zm43.544-1.668c2.084-.204 3.975-2.275 4.8-3.952-4.12.841-3.286 1.19-4.855 1.487l2.585-9.807c.766 2.422 1.486 4.865 3.71 6.66.395-2.631-.722-5.814-1.799-9.081 2.647.135 5.034.55 7.082 1.331a92 92 0 0 0-4.437 9.689c-1.908 3.478-4.286 5.193-6.835 5.341l-.049.097z"/><path d="M440.47 209.775c-1.285-.076-2.607-.477-3.765-1.081-1.006-.526-2.61-2.055-2.61-2.055-.78 1.09-1.772 1.855-2.717 2.42-1.209.724-2.403.789-3.657.716l-.044.473.295-2.141c1.401.137 2.419-.33 3.31-1.162.64-.597 1.223-1.388 1.215-2.279l-.013-1.53c-.003-.328-.379-.792-.683-.796-.29-.004-.37.502-.447.803-.155.602.156 1.273 0 1.875-.172.663-.502 1.187-1.044 1.553-.452.305-1.542.375-1.542.375l.348-1.446c.246-1.02-.674-1.812-.895-2.839-.142-.66-.22-1.4 0-2.035.24-.687.723-1.356 1.343-1.66.226-.111.498-.127.746-.108.35.027 1.044.268 1.044.268s-.2-1.034-.15-1.66c.061-.76.659-2.168.995-2.839.559-1.114 1.447-2.118 1.548-2.226.098.105 1.06 1.07 1.69 2.14.379.645.768 1.576.877 2.33.09.62.058 1.935.058 1.935s1.024-.453 1.372-.506c.246-.038.518-.043.751.05.638.257 1.164.888 1.447 1.556.261.617.23 1.36.131 2.03-.154 1.041-.722 1.846-.411 2.846l.44 1.416s-1.091.012-1.561-.258c-.565-.324-.928-.822-1.142-1.471-.195-.59-.082-1.31-.42-1.817-.15-.224-.358-.473-.647-.446-.303.027-.516.56-.529.888l-.054 1.377c-.016.424.163.864.373 1.206.516.839 1.283 1.348 2.149 1.726.937.409 1.783.566 2.794.58z"/></g><path d="m465.758 204.62-.03-.053c-.035-.65.17-1.761.17-1.761.113-.553.553-1.145 1.099-1.358.294-.115.651-.159.968.008.193.101.348.18.476.323s.207.332.293.6c.126.393.071.802.008 1.153-.105.58-.094 1.085.058 1.477.107.277.323.484.601.663-.051-.198-.089-.293-.117-.513a1.96 1.96 0 0 1 .125-.955c.201-.513.479-.917.667-1.366.179-.43.273-.915.242-1.374-.026-.38-.13-.77-.33-1.043-.217-.295-.549-.54-.88-.608-.294-.06-.778.047-1.165.182a6 6 0 0 0-.682.284l-.345.174.059-.403c.201-1.354.38-2.042 0-3.309-.156-.52-.417-1.095-.858-1.76-.214-.324-.453-.71-.726-1.067q-1.064 1.307-1.488 2.646c-.31.976-.321 2.274-.249 3.316l.03.419-.33-.213s-.376-.248-.829-.482-1.006-.44-1.239-.419c-.44.042-.733.268-1.019.664-.243.335-.295.626-.344 1.09-.032.292.037.842.08 1.2.051.419.28.86.345 1.39.021.174.072.312.11.481.038.17.057.368.014.6-.03.161-.073.277-.132.474.113-.059.19-.088.25-.134.217-.168.306-.467.447-.83.076-.194.093-.37.103-.576s.019-.449.117-.718c.167-.46.364-1.007.799-1.343a1.36 1.36 0 0 1 1.246-.213c.247.082.423.246.55.434.127.189.212.395.3.6.114.263.182.657.235 1.003s.08.64.08.64l.008.032-.007.04-.303 1.084-.386-.094.293-1.037c-.002-.02-.031-.271-.08-.593-.052-.333-.13-.732-.199-.892a3.4 3.4 0 0 0-.264-.529.62.62 0 0 0-.344-.276 1.03 1.03 0 0 0-.902.15c-.307.237-.494.697-.66 1.153-.072.197-.078.376-.088.584s-.02.45-.124.719c-.13.331-.237.74-.587 1.01-.258.2-.725.395-.725.395l-.411.182.147-.45s.206-.66.249-.893a.95.95 0 0 0-.015-.418c-.032-.142-.09-.307-.117-.53-.051-.418-.28-.86-.345-1.389-.042-.345-.124-.891-.08-1.303.051-.48.126-.897.425-1.31.327-.454.743-.77 1.297-.822.44-.041.979.214 1.452.458.304.157.397.23.55.324-.05-1-.035-2.155.271-3.12.324-1.022.88-2.03 1.723-3.008l.146-.166.147.166c.392.454.66.953.902 1.319.461.696.747 1.314.916 1.88.363 1.21.23 2.035.059 3.15.133-.06.18-.094.41-.174.415-.143.92-.28 1.356-.19.446.092.848.387 1.122.759.272.37.388.841.418 1.279a3.55 3.55 0 0 1-.279 1.587c-.21.505-.49.907-.667 1.358-.09.228-.133.491-.102.727.045.352.22.924.22.924l.124.402-.381-.134c-.609-.222-1.007-.625-1.202-1.129s-.195-1.093-.081-1.721c.06-.33.092-.66.007-.924-.078-.244-.134-.364-.205-.442-.07-.08-.179-.138-.366-.237-.174-.092-.442-.078-.66.007-.363.142-.797.664-.836 1.035-.07.654-.242 1.32-.535 1.734m11.436-.771.103-.221-.22-.08c-1.637-.557-3.15-.135-4.575.514a36 36 0 0 0 1.327-5.085c1.554 3.008 2.873 3.992 4.113 4.604l.227.11.051-.268c.37-2.054.399-4.79-1.165-8.86 1.753.098 3.496.324 5.227 1.153l.16-.395c-1.9-.91-3.798-1.136-5.673-1.224l-.323-.016.132.316c1.606 4.017 1.607 6.631 1.283 8.647-1.191-.625-2.397-1.568-3.937-4.73l-.27-.553-.104.616a35.7 35.7 0 0 1-1.561 5.986l-.176.49.44-.222c1.44-.703 2.895-1.162 4.464-.718l.039.026zm-54.673.063c1.567-.44 3.02.016 4.457.719l.44.22-.168-.489a35.7 35.7 0 0 1-1.562-5.985l-.102-.616-.272.553c-1.54 3.163-2.752 4.105-3.943 4.73-.324-2.016-.317-4.63 1.29-8.647l.124-.316-.315.016c-1.875.088-3.773.314-5.674 1.224l.161.394c1.733-.829 3.472-1.055 5.227-1.152-1.564 4.07-1.535 6.806-1.166 8.86l.044.268.235-.11c1.239-.612 2.56-1.594 4.113-4.596a36 36 0 0 0 1.326 5.077c-1.425-.649-2.937-1.072-4.574-.513l-.22.079.103.221-.043.023zm12.875.955-.23-.923c.005-.039.027-.26.074-.569.052-.333.136-.732.205-.892.091-.21.173-.393.264-.529a.62.62 0 0 1 .345-.276c.287-.096.652-.038.894.15.308.237.502.697.667 1.153.072.197.079.375.088.584.01.208.02.45.125.718.13.332.237.74.586 1.011.258.2.726.395.726.395l.403.182-.139-.45s-.206-.66-.25-.893a.95.95 0 0 1 .016-.418c.032-.142.083-.307.11-.53.05-.418.28-.86.344-1.39.042-.344.132-.89.088-1.302-.051-.48-.126-.897-.425-1.31-.328-.454-.743-.77-1.298-.822-.438-.042-.978.214-1.451.458-.305.157-.397.23-.55.324.05-1 .035-2.155-.271-3.12-.324-1.022-.88-2.03-1.723-3.008l-.147-.166-.146.166c-.392.454-.667.953-.91 1.319-.46.696-.739 1.314-.908 1.88-.363 1.209-.23 2.035-.059 3.15-.133-.06-.178-.093-.41-.174-.415-.143-.92-.28-1.357-.19-.445.092-.847.387-1.121.759-.272.369-.389.841-.418 1.279a3.55 3.55 0 0 0 .279 1.587c.21.505.49.907.667 1.358.089.228.125.491.095.727-.046.352-.213.924-.213.924l-.124.402.38-.134c.61-.222 1.008-.625 1.203-1.13s.195-1.092.08-1.72c-.059-.33-.09-.66-.007-.924.078-.244.135-.364.206-.443s.171-.138.359-.237c.173-.09.449-.077.667.008.363.142.758.67.836 1.035v.008c.002.01.189 1.139.161 1.65l.47.09c-.039-.715-.243-1.827-.243-1.827-.113-.554-.546-1.146-1.092-1.358-.294-.115-.659-.16-.975.008-.193.101-.341.18-.47.323-.127.144-.214.332-.3.6-.125.393-.07.802-.007 1.153.105.58.093 1.085-.059 1.477-.107.277-.315.484-.593.663.051-.198.089-.294.117-.513a1.96 1.96 0 0 0-.125-.956c-.201-.512-.479-.916-.667-1.366a3.1 3.1 0 0 1-.25-1.374c.026-.378.13-.77.33-1.042.218-.295.557-.54.888-.608.294-.06.77.047 1.158.182.388.134.69.284.69.284l.344.174-.066-.403c-.202-1.355-.373-2.042.007-3.309.156-.52.41-1.095.85-1.76.215-.324.46-.71.734-1.067q1.064 1.307 1.488 2.646c.31.976.314 2.274.242 3.316l-.022.419.33-.213s.367-.248.82-.482c.454-.234 1.014-.44 1.247-.419.44.042.733.268 1.019.664.243.335.295.626.344 1.09.032.292-.044.842-.088 1.2-.05.419-.272.86-.337 1.39-.021.174-.072.312-.11.481-.038.17-.065.368-.022.6.03.16.074.277.132.474-.112-.059-.19-.088-.25-.134-.217-.169-.305-.467-.446-.83-.076-.194-.086-.37-.096-.576s-.019-.449-.117-.718c-.167-.46-.364-1.007-.799-1.343a1.36 1.36 0 0 0-1.246-.213c-.247.082-.43.246-.557.434-.127.189-.205.395-.294.6-.113.263-.18.657-.234 1.003s-.088.64-.088.64v.031l.007.04.237.947.116.013zm15.173-3.497.007-.269.242.063c1.116.302 1.968.709 2.676 1.161.898.574 1.56 1.219 2.258 1.84l.117-7.13c-.594.706-1.152 1.463-1.972 2.068-.67.495-1.926 1.145-3.1 1.287l-.28.032.06-.292c.165-.804.16-1.362.534-2.314.356-.903 1.105-2.213 2.595-4.406-1.289-.154-2.412-.324-4.09-.324s-2.795.17-4.084.324c1.491 2.193 2.24 3.503 2.595 4.406.375.952.37 1.51.536 2.314l.058.292-.278-.032c-1.176-.142-2.431-.792-3.101-1.287-.817-.603-1.38-1.356-1.972-2.06l.117 7.114c.694-.62 1.363-1.26 2.258-1.832a9.4 9.4 0 0 1 2.668-1.16l.25-.064v.268l-.402.303c-.942.286-1.695.63-2.311 1.024-.986.63-1.698 1.367-2.536 2.085l-.316.268-.007-.434-.125-8.133-.014-.537.352.379c.773.84 1.353 1.756 2.258 2.424.557.411 1.65.962 2.653 1.153-.111-.648-.16-1.154-.462-1.92-.352-.895-1.078-2.208-2.734-4.619l-.205-.3.344-.04c1.428-.158 2.605-.37 4.458-.37 1.852 0 3.03.212 4.457.371l.352.04-.206.3c-1.656 2.41-2.389 3.723-2.742 4.619-.301.767-.341 1.276-.454 1.927 1.003-.191 2.089-.75 2.646-1.161.905-.667 1.492-1.584 2.266-2.424l.344-.38-.007.538-.132 8.133v.434l-.323-.268c-.838-.718-1.543-1.454-2.529-2.085-.615-.393-1.369-.738-2.31-1.018z" color="#000"/><path fill="none" stroke="#000" d="M-272.65 1095.5s-4.94 7.603-7.977 10.201c-4.218 3.608-6.992 5.781-12.41 7.49-5.41 1.704-12.954 2.663-18.617 2.353-5.476-.3-11.112-1.888-16.048-4.28-4.29-2.078-11.127-8.13-11.127-8.13-3.323 4.311-7.555 7.34-11.583 9.578-5.15 2.862-10.24 3.12-15.586 2.832-10.867-.586-21.005-7.374-29.137-21.138-5.272-12.47-11.338-25.1-18.912-38.342 8.73-3.09 18.903-4.736 30.187-5.27-4.59 12.93-9.35 25.527-7.666 35.935 9.48-7.1 12.547-16.767 15.812-26.354l11.02 38.812c-6.688-1.173-3.13-2.555-20.697-5.885 3.52 6.637 11.578 14.832 20.462 15.64 5.974.542 10.31-1.304 14.107-4.597 2.728-2.366 5.215-5.495 5.182-9.02l-.056-6.056c-.012-1.297-1.613-3.132-2.91-3.15-1.235-.017-1.577 1.988-1.907 3.179-.66 2.383.665 5.037 0 7.418-.734 2.626-2.14 4.7-4.451 6.147-1.924 1.206-6.57 1.484-6.57 1.484l1.483-5.723c1.047-4.037-2.873-7.17-3.815-11.234-.607-2.615-.942-5.54 0-8.054 1.018-2.72 3.079-5.368 5.723-6.571.964-.439 2.122-.499 3.179-.424 1.495.106 4.451 1.06 4.451 1.06s-.848-4.091-.636-6.57c.258-3.008 2.805-8.579 4.24-11.235 2.38-4.41 6.168-8.383 6.6-8.81.414.417 4.52 4.238 7.202 8.471 1.615 2.55 3.272 6.234 3.738 9.216.385 2.46.247 7.66.247 7.66s4.366-1.794 5.85-2.004c1.05-.148 2.209-.169 3.202.202 2.72 1.016 4.96 3.514 6.166 6.157 1.114 2.442.984 5.383.56 8.034-.658 4.12-3.078 7.306-1.753 11.26l1.879 5.606s-4.655.046-6.658-1.023c-2.406-1.283-3.954-3.254-4.868-5.822-.83-2.33-.348-5.182-1.788-7.188-.637-.888-1.529-1.871-2.76-1.768-1.293.109-2.2 2.22-2.255 3.516l-.228 5.451c-.07 1.675.693 3.416 1.59 4.771 2.197 3.32 5.467 5.335 9.157 6.83 3.997 1.62 7.601 2.242 11.913 2.293 3.597.042 9.85-.548 13.258-1.7 4.2-1.418 6.669-3.22 9.917-6.235 1.831-1.7 3.055-4.168 3.86-6.533.929-2.724.595-7.424.595-7.424-4.179 1.584-7.811 3.713-11.086 6.2-3.7 2.812-6.944 6.081-9.998 9.539l-.297-46.92c4.352 4.802 7.517 9.103 11.87 12.719 3.665 3.045 5.548 4.206 9.213 5.395-1.047-3.774-1.4-6.064-4.103-9.838-3.747-5.233-7.396-10.852-11.932-16.086 8.354-1.391 16.702-1.766 25.167-1.766s16.813.375 25.167 1.766c-4.536 5.233-8.185 10.852-11.932 16.086-2.702 3.774-3.056 6.064-4.103 9.838 3.665-1.189 5.549-2.35 9.214-5.395 4.353-3.617 7.517-7.917 11.87-12.718l-.297 46.919c-3.055-3.458-6.298-6.727-9.998-9.538-3.275-2.488-6.907-4.617-11.086-6.201 0 0-.334 4.7.594 7.424.806 2.365 2.03 4.833 3.86 6.533 3.249 3.015 5.719 4.817 9.918 6.236 3.408 1.152 9.66 1.74 13.258 1.699 4.312-.05 7.916-.673 11.913-2.293 3.69-1.495 6.96-3.51 9.157-6.83.897-1.355 1.66-3.096 1.59-4.77l-.229-5.452c-.054-1.296-.962-3.407-2.254-3.516-1.232-.103-2.123.88-2.76 1.768-1.44 2.006-.958 4.859-1.788 7.188-.914 2.568-2.463 4.539-4.868 5.822-2.003 1.07-6.658 1.023-6.658 1.023l1.878-5.605c1.325-3.955-1.095-7.142-1.752-11.26-.424-2.652-.554-5.593.56-8.035 1.205-2.643 3.445-5.14 6.166-6.157.993-.37 2.152-.35 3.201-.202 1.484.21 5.85 2.003 5.85 2.003s-.137-5.2.247-7.659c.467-2.982 2.124-6.666 3.739-9.216 2.683-4.233 6.787-8.054 7.202-8.471.432.427 4.219 4.4 6.6 8.81 1.435 2.656 3.982 8.227 4.24 11.234.212 2.48-.636 6.57-.636 6.57s2.956-.953 4.45-1.059c1.058-.075 2.216-.015 3.18.424 2.644 1.203 4.705 3.85 5.723 6.57.941 2.515.607 5.44 0 8.055-.943 4.063-4.862 7.196-3.815 11.234l1.484 5.723s-4.647-.278-6.571-1.484c-2.31-1.447-3.718-3.52-4.451-6.147-.666-2.381.66-5.035 0-7.418-.33-1.191-.672-3.197-1.908-3.18-1.297.019-2.897 1.854-2.91 3.151l-.055 6.056c-.033 3.525 2.454 6.654 5.182 9.02 3.797 3.293 8.133 5.139 14.107 4.596 8.884-.806 16.942-9.002 20.462-15.639-17.566 3.33-14.01 4.712-20.698 5.885l11.02-38.812c3.266 9.587 6.332 19.253 15.813 26.354 1.684-10.409-3.077-23.006-7.667-35.936 11.284.535 21.457 2.181 30.187 5.27-7.574 13.243-13.639 25.872-18.912 38.343-8.132 13.764-18.27 20.552-29.137 21.138-5.346.288-10.435.03-15.586-2.832-4.027-2.238-8.259-5.267-11.583-9.579 0 0-6.836 6.053-11.127 8.131-4.936 2.392-10.57 3.98-16.048 4.28-5.662.31-13.207-.649-18.616-2.354-5.418-1.708-8.192-3.881-12.41-7.489-3.038-2.598-7.977-10.201-7.977-10.201z" transform="matrix(.23459 0 0 .25269 513.579 -72.098)"/><g fill="#fff" stroke="#000" stroke-width="1.607"><path d="M2700.2 785.03a10.489 10.66 0 1 1-20.977 0 10.489 10.66 0 1 1 20.977 0z" transform="matrix(.17173 0 0 .18498 -12.28 55.506)"/><path d="M2700.2 785.03a10.489 10.66 0 1 1-20.977 0 10.489 10.66 0 1 1 20.977 0z" transform="matrix(.17173 0 0 .18498 -40.78 58.235)"/><path d="M2700.2 785.03a10.489 10.66 0 1 1-20.977 0 10.489 10.66 0 1 1 20.977 0z" transform="matrix(-.17173 0 0 .18498 940.02 58.235)"/></g><path fill="#fed100" d="m432.273 203.638 3.959-.231.563.93-.466.99-3.96.232-.682-.924z"/><path fill="none" stroke="#000" d="M-346.46 1090.7h16.902l2.2 3.807-2.2 3.806h-16.902l-2.707-3.807z" transform="matrix(.23424 -.0137 .01271 .25232 499.564 -76.307)"/><path fill="#f6e078" d="m466.967 203.638-3.96-.232-.563.93.467.991 3.959.232.682-.924z"/><path fill="#fed100" stroke="#000" d="M-346.46 1090.7h16.902l2.2 3.807-2.2 3.806h-16.902l-2.707-3.807z" transform="matrix(-.23424 -.0137 -.01271 .25232 399.675 -76.307)"/><path fill="#fed100" fill-rule="evenodd" d="M424.619 220.198s2.828-.223 7.81-.526c4.984-.303 10.323-.462 13.046-.462h8.301c2.638 0 8.102.159 13.045.462s7.755.557 7.755.557l1.733-8.34s-17.759-1.726-26.685-1.726-26.684 1.726-26.684 1.726z"/><path fill="none" stroke="#000" d="M496.5 341.73a1029 1029 0 0 1 113.86 6.234l-6.928 33.312c-37.64-3.378-68.45-4.282-106.51-4.58m.505-34.966c-38.012-.02-76.02 2.04-113.86 6.234l6.927 33.312c37.64-3.379 68.451-4.283 106.51-4.581" transform="matrix(.23459 0 0 .25269 333.038 123.904)"/><g stroke-width="1.33" color="#000"><path fill="#fed100" d="m432.343 210.456-.007.006h-.008c-3.17.246-6.84.514-10.043.984-.453.583-.49 1.114.333 1.54 3.075-.452 6.7-.726 9.873-.972 4.304-.269 8.644-.437 12.972-.483h8.302c2.589 0 8.056.17 12.971.49 4.892.316 9.888.965 9.888.965.853-.47.76-.994.297-1.54 0 0-5.043-.666-10.036-.99-4.972-.323-10.433-.49-13.12-.49h-8.302c-4.38.015-8.752.238-13.12.49"/><path fill="none" stroke="#000" d="m-644.32 561.77-.031.031h-.031c-13.37 1.257-28.842 2.628-42.344 5.031-1.91 2.982-2.068 5.701 1.406 7.875 12.963-2.307 28.246-3.71 41.625-4.968 18.145-1.375 36.44-2.234 54.688-2.47h35c10.916 0 33.968.871 54.688 2.5 20.625 1.623 41.688 4.938 41.688 4.938 3.594-2.398 3.204-5.08 1.25-7.875 0 0-21.258-3.406-42.312-5.062-20.96-1.649-43.984-2.5-55.312-2.5h-35c-18.464.072-36.901 1.21-55.313 2.5z" transform="matrix(.2372 0 0 .19554 585.17 100.609)"/></g><g stroke-width="1.379" color="#000"><path fill="#fed100" d="m433.56 219.146-.006.006h-.007c-2.948.246-6.36.514-9.338.984-.421.583-.456 1.114.31 1.54 2.859-.452 6.229-.726 9.18-.972 4.001-.269 8.036-.437 12.06-.483h7.72c2.407 0 7.49.17 12.06.489 4.548.317 9.194.965 9.194.965.792-.468.706-.993.275-1.54 0 0-4.688-.665-9.331-.99-4.623-.322-9.7-.488-12.198-.488h-7.72c-4.071.014-8.137.236-12.198.489z"/><path fill="none" stroke="#000" d="m-644.32 561.77-.031.031h-.031c-13.37 1.257-28.842 2.628-42.344 5.031-1.91 2.982-2.068 5.701 1.406 7.875 12.963-2.307 28.246-3.71 41.625-4.968 18.145-1.375 36.44-1.779 54.688-2.014h35c10.916 0 33.968.415 54.688 2.045 20.625 1.622 41.688 4.937 41.688 4.937 3.594-2.398 3.204-5.08 1.25-7.875 0 0-21.258-3.406-42.312-5.062-20.96-1.649-43.984-2.045-55.312-2.045h-35a838 838 0 0 0-55.313 2.045z" transform="matrix(.22054 0 0 .19554 575.657 109.299)"/></g><g stroke-width="2.66" transform="matrix(.1186 0 0 .09777 107.502 131.629)"><rect width="89.493" height="59.169" x="2840.1" y="823.57" fill="none" stroke="#000" ry="3.006"/><rect width="70.263" height="43.637" x="2849.7" y="831.33" fill="#012169" fill-rule="evenodd" stroke="#a0892c" ry="5.177"/><path fill="#2b96f6" fill-rule="evenodd" stroke="#a0892c" d="M2918.5 873.46a5.16 5.16 0 0 1-3.664 1.513h-59.908a5.16 5.16 0 0 1-3.664-1.513 5.16 5.16 0 0 1-1.513-3.664v-33.282c0-1.434.577-2.729 1.513-3.664.935-.936 68.172 39.675 67.237 40.61z"/><g fill="#012169" fill-rule="evenodd" stroke="#000"><path d="M2918.5 873.46a5.16 5.16 0 0 1-3.664 1.513h-59.908a5.16 5.16 0 0 1-3.664-1.513 5.16 5.16 0 0 1-1.513-3.664v-33.282c0-1.434.577-2.729 1.513-3.664.475-.476 18.04 9.758 35.096 20.073 16.539 10 32.6 20.077 32.14 20.538z"/><path d="M2918.5 832.84a5.16 5.16 0 0 1 1.513 3.664v33.282a5.16 5.16 0 0 1-1.513 3.664 5.16 5.16 0 0 1-3.664 1.514h-59.908a5.16 5.16 0 0 1-3.664-1.514c-.936-.935 66.3-41.547 67.237-40.61z"/><path d="M2918.5 873.46a5.16 5.16 0 0 1-3.664 1.513h-59.908a5.16 5.16 0 0 1-3.664-1.513c-.475-.475 16.6-11.163 33.66-21.457 0 0 34.513 20.521 33.577 21.457z"/></g><rect width="70.263" height="43.637" x="2849.7" y="831.33" fill="none" stroke="#000" ry="5.177"/><rect width="39.367" height="22.304" x="2865.2" y="841.29" fill="#012169" fill-rule="evenodd" stroke="#000" ry="0"/></g><g stroke-width="1.428" transform="matrix(.20308 -.0215 .0319 .19463 320.52 157.944)"><rect width="35.829" height="22.674" x="494.63" y="340.21" fill="#fed100" fill-rule="evenodd" stroke="#000" ry="10.771"/><rect width="29.954" height="16.542" x="497.57" y="343.28" fill="#306947" fill-rule="evenodd" ry="8.271"/><rect width="29.954" height="16.542" x="497.57" y="343.28" fill="none" stroke="#000" ry="8.271"/></g><g stroke-width="1.361"><path fill="#fed100" stroke="#000" d="m626.17 310.88-23.701-12.771 23.701-12.082 2.881 13.147z" transform="matrix(-.19192 .03609 .03628 .22389 532.876 127.027)"/><path fill="#c8102e" d="m423.854 218.463 2.962-2.693-3.615-1.34-.775 2.124z"/><path fill="#c8102e" d="m423.854 218.463 2.962-2.693-4.355.778z"/><path fill="none" stroke="#000" d="m452.4 250.56 22.953-.025" transform="matrix(-.19192 .03609 .03628 .22389 504.56 143.329)"/><path fill="none" stroke="#000" d="m626.17 307.47-17.183-9.259 17.183-8.759 5.837 8.4z" transform="matrix(-.19192 .03609 .03628 .22389 532.876 127.027)"/></g><g fill="#fff" stroke="#000" stroke-width="1.452"><path stroke-width="3.228" d="M2700.2 785.03a10.489 10.66 0 1 1-20.977 0 10.489 10.66 0 1 1 20.977 0z" transform="matrix(.0855 0 0 .0921 211.76 141.239)"/><path stroke-width="3.226" d="M2700.2 785.03a10.489 10.66 0 1 1-20.977 0 10.489 10.66 0 1 1 20.977 0z" transform="matrix(.0855 0 0 .0921 211.944 144.318)"/><path stroke-width="3.228" d="M2700.2 785.03a10.489 10.66 0 1 1-20.977 0 10.489 10.66 0 1 1 20.977 0z" transform="matrix(.0855 0 0 .0921 199.693 141.949)"/><path stroke-width="3.228" d="M2700.2 785.03a10.489 10.66 0 1 1-20.977 0 10.489 10.66 0 1 1 20.977 0z" transform="matrix(.0855 0 0 .0921 199.876 145.028)"/></g><g stroke-width="1.428" transform="matrix(-.20308 -.0215 -.0319 .19463 578.719 157.944)"><rect width="35.829" height="22.674" x="494.63" y="340.21" fill="#fed100" fill-rule="evenodd" stroke="#000" ry="10.771"/><rect width="29.954" height="16.542" x="497.57" y="343.28" fill="#306947" fill-rule="evenodd" ry="8.271"/><rect width="29.954" height="16.542" x="497.57" y="343.28" fill="none" stroke="#000" ry="8.271"/></g><g stroke-width="1.361"><path fill="#fed100" stroke="#000" d="m626.17 310.88-23.701-12.771 23.701-12.082 2.881 13.147z" transform="matrix(.19192 .03609 -.03628 .22389 366.364 127.027)"/><path fill="#c8102e" d="m475.385 218.463-2.962-2.693 3.616-1.34.774 2.124z"/><path fill="#c8102e" d="m475.385 218.463-2.962-2.693 4.356.778z"/><path fill="none" stroke="#000" d="m452.4 250.56 22.953-.025" transform="matrix(.19192 .03609 -.03628 .22389 394.68 143.329)"/><path fill="none" stroke="#000" d="m626.17 307.47-17.183-9.259 17.183-8.759 5.837 8.4z" transform="matrix(.19192 .03609 -.03628 .22389 366.364 127.027)"/></g><g fill="#fff" stroke="#000" stroke-width="3.228"><path d="M2700.2 785.03a10.489 10.66 0 1 1-20.977 0 10.489 10.66 0 1 1 20.977 0z" transform="matrix(-.0855 0 0 .0921 687.48 141.239)"/><path d="M2700.2 785.03a10.489 10.66 0 1 1-20.977 0 10.489 10.66 0 1 1 20.977 0z" transform="matrix(-.0855 0 0 .0921 687.296 144.318)"/><path d="M2700.2 785.03a10.489 10.66 0 1 1-20.977 0 10.489 10.66 0 1 1 20.977 0z" transform="matrix(-.0855 0 0 .0921 699.546 141.949)"/><path d="M2700.2 785.03a10.489 10.66 0 1 1-20.977 0 10.489 10.66 0 1 1 20.977 0z" transform="matrix(-.0855 0 0 .0921 699.363 145.028)"/></g></g></svg>