<svg xmlns="http://www.w3.org/2000/svg" viewBox="0 0 1000 600"><path fill="#ee2737" d="M0 0h1000v600H0z"/><path fill="#fedd00" d="M454.869 259.272a213 213 0 0 0-35.225-17.443 96.75 96.75 0 0 0-16.6 54.36 95.6 95.6 0 0 0 4.4 28.79 183.2 183.2 0 0 1 19.306-33.87 188.2 188.2 0 0 1 28.112-31.837zm-29.806-24.556a227.6 227.6 0 0 1 38.1 17.443c2.71-2.37 5.588-4.4 8.3-6.435a220.4 220.4 0 0 0-40.644-17.274 67 67 0 0 0-5.756 6.266m11.855-12.023a205.4 205.4 0 0 1 43.522 16.934c3.218-2.032 6.436-3.9 9.484-5.757a210 210 0 0 0-45.894-16.77 57.4 57.4 0 0 0-7.112 5.593m14.394-10.161a200 200 0 0 1 48.265 16.257 205.2 205.2 0 0 1 48.264-16.257 95.84 95.84 0 0 0-96.529 0m103.81 4.742a209.4 209.4 0 0 0-45.893 16.6q4.8 2.786 9.484 5.757a212.7 212.7 0 0 1 43.522-16.934 44 44 0 0 0-7.112-5.42zm13.21 11.346a213.2 213.2 0 0 0-40.644 17.1q4.341 3.075 8.468 6.435a220 220 0 0 1 37.934-17.443 39 39 0 0 0-5.758-6.1zM579.509 242a198 198 0 0 0-35.055 17.274 196 196 0 0 1 28.112 31.837 205 205 0 0 1 19.3 33.87 102 102 0 0 0 4.234-28.79 95.8 95.8 0 0 0-16.6-54.19zm-8.3 66.385a204 204 0 0 0-35.9-43.353c-3.048 2.2-6.266 4.4-9.145 6.6a208.15 208.15 0 0 1 53.006 79.255 104 104 0 0 0 7.282-12.532 227 227 0 0 0-15.241-29.974zm-53.684-44.03c3.049-2.2 6.1-4.4 9.315-6.436-2.71-2.37-5.589-4.572-8.468-6.774-3.217 2.032-6.435 4.064-9.653 6.266h.17c2.879 2.2 5.758 4.572 8.636 6.943zM499.577 250.8c3.217-2.032 6.6-4.064 9.652-5.927-3.217-2.032-6.435-4.064-9.652-5.927-3.218 1.863-6.266 3.9-9.484 5.927 3.218 1.867 6.266 3.899 9.484 5.927m-9.145 6.6c-3.218-2.2-6.266-4.234-9.484-6.266l-8.636 6.6c3.217 2.2 6.265 4.233 9.314 6.435q4.293-3.514 8.806-6.76zm9.145 6.774c-2.88 2.2-5.758 4.572-8.806 7.113 3.048 2.37 5.927 4.91 8.806 7.45 2.879-2.54 5.757-5.08 8.806-7.45-2.883-2.362-5.758-4.903-8.806-7.104zm0 31.668a214 214 0 0 0-33.362 47.587 205 205 0 0 0-14.9 36.579 98.05 98.05 0 0 0 96.529 0 205 205 0 0 0-14.9-36.58 208.6 208.6 0 0 0-33.361-47.586zm-55.885 64.183a216.3 216.3 0 0 1 47.248-72.99c-2.88-2.709-5.758-5.249-8.806-7.958a214.1 214.1 0 0 0-53.176 82.81 94.4 94.4 0 0 0 10.33 9.823c1.356-3.895 2.88-7.79 4.4-11.685zm64.521-72.99a219.3 219.3 0 0 1 47.418 72.99c1.524 3.895 2.879 7.79 4.233 11.685a96 96 0 0 0 10.5-9.822 216.4 216.4 0 0 0-53.345-82.811c-3.048 2.71-5.927 5.25-8.806 7.959zm-88.23 63.845a206 206 0 0 1 53.175-79.08q-4.551-3.529-9.314-6.774a209.3 209.3 0 0 0-35.9 43.522 215 215 0 0 0-15.24 29.805 92.6 92.6 0 0 0 7.281 12.532zm80.1-159.187a108.214 108.214 0 1 1-108.212 108.222A108.41 108.41 0 0 1 500.085 191.7zm47.756-23.709a64 64 0 0 0-9.822 15.41 10.27 10.27 0 0 1-.34-6.434c.848-7.79 3.05-12.532 7.114-19.137 1.354-2.37 2.71-4.4 3.386-6.943a29.57 29.57 0 0 0-3.556-25.74 32.8 32.8 0 0 1-4.91 21 10 10 0 0 1-1.694 2.033 64 64 0 0 0-11.347 13.886 66.4 66.4 0 0 0-7.451 16.765 10.15 10.15 0 0 1-1.185-6.1c-.34-7.96 1.016-12.87 3.9-20.152a29.4 29.4 0 0 0 2.37-7.452c1.186-7.79-.846-17.781-7.62-24.725a32.73 32.73 0 0 1-1.524 21.508 25 25 0 0 1-1.355 2.2 72.8 72.8 0 0 0-9.145 15.41 74 74 0 0 0-4.572 17.782 9.72 9.72 0 0 1-2.2-5.927c-1.524-7.79-1.016-12.87.678-20.49a23.2 23.2 0 0 0 1.185-7.622A29.92 29.92 0 0 0 488.4 119.9a33.26 33.26 0 0 1 1.862 21.677c-.338.677-.677 1.524-1.016 2.2-2.032 4.234-4.4 8.3-6.6 16.766a74 74 0 0 0-1.863 18.29 13 13 0 0 1-3.048-5.42c-2.71-7.62-3.049-12.531-2.371-20.49a38 38 0 0 0 0-7.621c-1.355-7.96-6.435-16.766-14.9-21.338a33.2 33.2 0 0 1 5.08 21l-.507 2.54a73 73 0 0 0-3.895 17.612 65.6 65.6 0 0 0 1.016 18.29 12.6 12.6 0 0 1-3.9-4.911c-3.895-7.113-4.911-12.024-5.589-19.814a23.3 23.3 0 0 0-1.355-7.62c-2.37-7.621-8.806-15.58-17.95-18.629 5.927 6.6 8.3 14.225 8.3 19.814a13 13 0 0 1-.17 2.54 74.4 74.4 0 0 0-1.016 17.951 72 72 0 0 0 3.9 17.95 12.47 12.47 0 0 1-4.742-4.233c-4.91-6.266-6.6-11.007-8.467-18.628a29.8 29.8 0 0 0-2.54-7.451c-3.557-6.944-11.177-13.887-20.66-15.58 6.773 5.757 10.33 13.04 11.346 18.458a13 13 0 0 1 .169 2.54 83.5 83.5 0 0 0 1.863 17.952 65.4 65.4 0 0 0 6.6 16.934 12.1 12.1 0 0 1-5.25-3.387c-5.927-5.419-8.467-9.822-11.346-17.1a33.6 33.6 0 0 0-3.556-6.943c-4.742-6.266-13.21-11.854-23.031-12.024 7.79 4.573 12.362 11.008 14.225 16.258l.508 2.54c.847 4.572 1.355 9.314 4.572 17.443a66 66 0 0 0 9.314 15.75 11.65 11.65 0 0 1-5.757-2.541c-6.6-4.4-9.823-8.467-14.056-15.072a23.9 23.9 0 0 0-4.573-6.266c-5.588-5.588-14.9-9.822-24.555-8.467 8.3 3.387 13.886 9.144 16.6 14.056.339.677.677 1.524 1.016 2.37 1.524 4.234 2.71 8.807 7.113 16.427a67.5 67.5 0 0 0 11.685 14.225 13.8 13.8 0 0 1-6.1-1.693c-7.282-3.387-11.007-6.774-16.088-12.7a43.7 43.7 0 0 0-5.588-5.589c-6.436-4.572-16.258-7.282-25.572-4.4 8.806 2.032 15.241 6.774 18.459 11.177a6 6 0 0 1 1.355 2.2 72.6 72.6 0 0 0 9.822 15.072 62.5 62.5 0 0 0 13.548 12.362 12.2 12.2 0 0 1-6.266-.847c-7.62-2.032-11.854-4.91-17.782-9.991a42.4 42.4 0 0 0-6.265-4.572 30.44 30.44 0 0 0-26.08-.34 33.14 33.14 0 0 1 20.152 8.13 21 21 0 0 1 1.524 2.032c2.88 3.556 5.42 7.62 12.024 13.378a69.3 69.3 0 0 0 15.41 9.992 11.2 11.2 0 0 1-6.265.17c-7.96-.848-12.532-3.05-19.306-7.114-2.37-1.354-4.4-2.71-6.943-3.387a29.21 29.21 0 0 0-25.572 3.557 33.1 33.1 0 0 1 21 4.91 9 9 0 0 1 1.862 1.694c3.387 3.218 6.605 6.774 13.887 11.347a63.3 63.3 0 0 0 16.765 7.451 11.6 11.6 0 0 1-6.1 1.355c-7.96.17-12.87-1.186-20.152-4.065a29.4 29.4 0 0 0-7.452-2.37c-7.79-1.186-17.781.846-24.725 7.62 8.637-2.2 16.6-.847 21.508 1.524a25 25 0 0 1 2.2 1.355 65.7 65.7 0 0 0 33.192 13.717 9.64 9.64 0 0 1-5.757 2.2c-7.96 1.693-12.87 1.016-20.66-.678a28.7 28.7 0 0 0-7.622-1.185c-7.959 0-17.442 3.556-23.2 11.346a32.7 32.7 0 0 1 21.507-1.862c.847.338 1.524.677 2.37 1.016a72.4 72.4 0 0 0 16.766 6.6 71.5 71.5 0 0 0 18.12 1.863 13 13 0 0 1-5.419 3.048c-7.451 2.71-12.531 3.049-20.321 2.371a40 40 0 0 0-7.79 0c-7.79 1.355-16.6 6.435-21.169 15.072a32 32 0 0 1 21-5.25c.846.17 1.523.339 2.37.508a66.76 66.76 0 0 0 35.9 2.879 12.6 12.6 0 0 1-4.911 3.9c-6.943 3.895-12.024 4.911-19.814 5.589a37.7 37.7 0 0 0-7.62 1.355 29.56 29.56 0 0 0-18.629 17.95 32.6 32.6 0 0 1 19.983-8.3 13 13 0 0 1 2.54.17 73 73 0 0 0 17.951 1.016 63 63 0 0 0 17.782-3.9 10.2 10.2 0 0 1-4.234 4.742c-6.266 4.91-11.007 6.6-18.628 8.467a28.6 28.6 0 0 0-7.282 2.54 29.7 29.7 0 0 0-15.58 20.66 32.67 32.67 0 0 1 18.29-11.346 13 13 0 0 1 2.54-.169 82.5 82.5 0 0 0 17.95-1.863 68.5 68.5 0 0 0 17.1-6.6 11.65 11.65 0 0 1-3.557 5.25c-5.419 5.927-9.822 8.467-17.1 11.346a52 52 0 0 0-6.774 3.556c-6.435 4.742-12.023 13.21-12.193 23.031a32.48 32.48 0 0 1 16.427-14.225c.847-.17 1.524-.339 2.37-.508 4.573-.847 9.315-1.355 17.444-4.572a74.7 74.7 0 0 0 15.918-9.145 12.2 12.2 0 0 1-2.71 5.588c-4.4 6.6-8.3 9.823-15.071 14.056a31 31 0 0 0-6.266 4.573 29.84 29.84 0 0 0-8.3 24.555 32.5 32.5 0 0 1 13.887-16.6c.846-.339 1.524-.677 2.37-1.016a65.8 65.8 0 0 0 16.427-7.113 67.5 67.5 0 0 0 14.225-11.685 10.45 10.45 0 0 1-1.693 6.1c-3.387 7.282-6.774 11.007-12.7 16.088a33.8 33.8 0 0 0-5.42 5.588c-4.572 6.436-7.281 16.258-4.4 25.572 1.862-8.806 6.6-15.241 11.177-18.459a14 14 0 0 1 2.032-1.355 77.4 77.4 0 0 0 15.241-9.822 67.3 67.3 0 0 0 12.193-13.548 13.74 13.74 0 0 1-.677 6.266c-2.2 7.62-4.911 11.854-10.161 17.782a28.8 28.8 0 0 0-4.4 6.435c-3.556 7.112-4.742 17.1-.508 25.91.677-8.975 4.4-16.088 8.3-19.983a8.9 8.9 0 0 1 1.863-1.694c3.725-2.878 7.62-5.419 13.378-12.023a69.3 69.3 0 0 0 9.992-15.41 12.9 12.9 0 0 1 .338 6.265c-1.016 7.96-3.048 12.532-7.112 19.306a30 30 0 0 0-3.557 6.943c-2.37 7.62-1.862 17.781 3.726 25.74-.847-8.975 1.694-16.6 4.911-21.168a18 18 0 0 1 1.524-1.862c3.218-3.387 6.774-6.605 11.516-13.887a70 70 0 0 0 7.282-16.765 11.6 11.6 0 0 1 1.355 6.1c.338 7.96-1.016 12.87-4.065 20.152a38 38 0 0 0-2.37 7.452c-1.186 7.79.846 17.781 7.62 24.725-2.2-8.637-.847-16.6 1.694-21.508a9 9 0 0 1 1.185-2.2 64.5 64.5 0 0 0 9.145-15.58 62.9 62.9 0 0 0 4.742-17.612 12.44 12.44 0 0 1 2.2 5.757c1.524 7.96 1.016 12.87-.847 20.66a28.7 28.7 0 0 0-1.185 7.622 29.55 29.55 0 0 0 11.516 23.2c-3.557-8.128-3.557-16.088-1.863-21.507a13.3 13.3 0 0 1 .847-2.37 72.4 72.4 0 0 0 6.6-16.766 71.5 71.5 0 0 0 1.863-18.12 11.37 11.37 0 0 1 3.048 5.419c2.88 7.451 3.049 12.531 2.54 20.49a23 23 0 0 0 0 7.621 29.52 29.52 0 0 0 14.9 21.338c-4.742-7.62-5.927-15.58-5.08-21a6.8 6.8 0 0 1 .508-2.54 73 73 0 0 0 3.895-17.612 82 82 0 0 0-1.016-18.29 14.3 14.3 0 0 1 3.895 4.911c3.895 6.943 4.91 12.024 5.588 19.814a28.7 28.7 0 0 0 1.186 7.62 29.84 29.84 0 0 0 18.12 18.629c-5.927-6.774-8.3-14.395-8.468-19.983a13 13 0 0 1 .17-2.54 65.5 65.5 0 0 0 1.016-17.951 68 68 0 0 0-3.726-17.782 11.9 11.9 0 0 1 4.573 4.234c4.91 6.266 6.773 11.007 8.636 18.628a28.2 28.2 0 0 0 2.371 7.282c3.726 7.113 11.177 13.887 20.83 15.58a32.14 32.14 0 0 1-11.516-18.29 13 13 0 0 1-.169-2.54 71.5 71.5 0 0 0-1.694-17.95 70.2 70.2 0 0 0-6.773-17.1 10.8 10.8 0 0 1 5.25 3.557c5.927 5.419 8.467 9.822 11.515 17.1a29 29 0 0 0 3.556 6.774c4.742 6.435 13.21 12.023 22.862 12.193a32.88 32.88 0 0 1-14.056-16.427 12.5 12.5 0 0 1-.677-2.37 68 68 0 0 0-4.572-17.444 64.3 64.3 0 0 0-9.145-15.75 10.33 10.33 0 0 1 5.758 2.541c6.6 4.4 9.822 8.3 13.886 15.072a33 33 0 0 0 4.573 6.266 29.84 29.84 0 0 0 24.555 8.3c-8.3-3.218-13.886-8.975-16.427-13.887a7.2 7.2 0 0 1-1.016-2.37 75.2 75.2 0 0 0-7.282-16.427 71.4 71.4 0 0 0-11.515-14.225 12.8 12.8 0 0 1 6.1 1.693c7.113 3.387 11.008 6.774 16.088 12.7a27.4 27.4 0 0 0 5.42 5.42 30.1 30.1 0 0 0 25.57 4.572c-8.636-2.032-15.071-6.774-18.458-11.347a14 14 0 0 1-1.355-2.032c-2.2-4.064-4.064-8.467-9.653-15.241a74.3 74.3 0 0 0-13.717-12.193 13.5 13.5 0 0 1 6.266.677c7.62 2.2 11.854 5.08 17.95 10.161a32 32 0 0 0 6.267 4.4c7.112 3.556 17.1 4.742 25.91.508-8.975-.677-15.919-4.4-19.983-8.3a8.9 8.9 0 0 1-1.694-1.863 72.2 72.2 0 0 0-11.854-13.378 78.4 78.4 0 0 0-15.41-9.992 12.75 12.75 0 0 1 6.265-.338c7.79 1.016 12.532 3.048 19.137 7.282a37.6 37.6 0 0 0 6.943 3.387c7.62 2.37 17.781 1.862 25.74-3.726-8.975.847-16.426-1.694-21-4.911l-2.033-1.524a69 69 0 0 0-13.884-11.523 67 67 0 0 0-16.766-7.282 12 12 0 0 1 6.1-1.355c8.129-.338 13.04 1.016 20.152 4.065a38 38 0 0 0 7.452 2.37c7.79 1.186 17.781-.846 24.725-7.62-8.637 2.2-16.427.847-21.508-1.694a14 14 0 0 1-2.2-1.185 72.8 72.8 0 0 0-15.41-9.145 79 79 0 0 0-17.782-4.742 12.4 12.4 0 0 1 5.927-2.2c7.79-1.524 12.87-1.016 20.49.847a28.7 28.7 0 0 0 7.622 1.185A30.46 30.46 0 0 0 680.1 288.4c-8.3 3.387-16.258 3.387-21.508 1.693a9.8 9.8 0 0 1-2.37-.847c-4.234-2.032-8.3-4.4-16.766-6.6a73 73 0 0 0-18.29-1.863 11.4 11.4 0 0 1 5.42-3.048c7.62-2.88 12.7-3.049 20.49-2.54a24 24 0 0 0 7.79 0 29.55 29.55 0 0 0 21.17-14.9c-7.621 4.742-15.411 5.927-21 5.25a14 14 0 0 1-2.54-.678 73.3 73.3 0 0 0-17.443-3.9 74 74 0 0 0-18.29 1.186 10.8 10.8 0 0 1 4.912-4.065c6.943-3.9 11.854-4.91 19.644-5.588a28.7 28.7 0 0 0 7.62-1.186c7.621-2.54 15.58-8.806 18.629-18.12a32.17 32.17 0 0 1-19.814 8.468 13 13 0 0 1-2.54-.17c-4.573-.677-9.314-1.693-17.951-1.016a65 65 0 0 0-17.95 3.9 12.47 12.47 0 0 1 4.233-4.742c6.266-4.91 11.007-6.773 18.628-8.636a29.4 29.4 0 0 0 7.451-2.371c6.944-3.726 13.887-11.177 15.58-20.83-5.757 6.943-12.87 10.5-18.459 11.516a13 13 0 0 1-2.54.169 69.8 69.8 0 0 0-17.781 1.694 65.3 65.3 0 0 0-17.1 6.773 10.47 10.47 0 0 1 3.387-5.25c5.419-5.927 9.822-8.467 17.1-11.515a27 27 0 0 0 6.943-3.556c6.266-4.742 11.854-13.21 12.024-22.862-4.573 7.62-11.008 12.193-16.258 14.056a14 14 0 0 1-2.54.677c-4.572.847-9.314 1.355-17.443 4.572a71 71 0 0 0-15.75 9.145 12.34 12.34 0 0 1 2.541-5.758c4.4-6.6 8.467-9.822 15.072-13.886a28.4 28.4 0 0 0 6.266-4.573c5.588-5.588 9.822-14.9 8.467-24.555-3.387 8.3-9.144 13.886-14.056 16.6a12 12 0 0 1-2.2.847 79.4 79.4 0 0 0-16.6 7.282 71.4 71.4 0 0 0-14.225 11.515 13.75 13.75 0 0 1 1.693-5.927c3.387-7.282 6.774-11.007 12.7-16.257a33.8 33.8 0 0 0 5.589-5.42c4.572-6.435 7.282-16.257 4.4-25.57-2.033 8.636-6.774 15.071-11.177 18.458a9.6 9.6 0 0 1-2.2 1.355c-4.064 2.2-8.467 4.064-15.072 9.653a63.8 63.8 0 0 0-12.186 13.706 10.3 10.3 0 0 1 .678-6.266c2.2-7.62 4.91-11.854 9.991-17.95 1.694-2.033 3.387-3.727 4.572-6.267a30.06 30.06 0 0 0 .34-25.91 31.66 31.66 0 0 1-8.13 19.983 17 17 0 0 1-1.862 1.694 68.2 68.2 0 0 0-13.548 12.023z"/></svg>