<svg xmlns="http://www.w3.org/2000/svg" xmlns:xlink="http://www.w3.org/1999/xlink" viewBox="0 0 900 600"><path fill="#c8102e" d="M0 0h900v600H0z"/><path fill="#fff" d="M0 0h450v600H0z"/><path fill="#c8102e" d="M22.222 82.828v45.457h45.455c0 7.574 7.576 15.151 15.152 15.151v45.454h45.452v-45.454c7.576 0 15.152-7.577 15.152-15.151h45.455V82.828h-45.455c0-7.574-7.576-15.151-15.152-15.151V22.223H82.829v45.454c-7.576 0-15.152 7.577-15.152 15.151z"/><path fill="#96877d" d="M25.254 85.857v39.397h45.452c0 7.574 7.576 15.15 15.152 15.15v45.454h39.392v-45.454c7.576 0 15.152-7.577 15.152-15.15h45.452V85.857h-45.452c0-7.574-7.576-15.151-15.152-15.151V25.252H85.858v45.454c-7.576 0-15.152 7.577-15.152 15.151z"/><path fill="#ccc" d="M26.77 87.373v36.364h45.452c0 7.574 7.576 15.153 15.152 15.153v45.454h36.362V138.89c7.576 0 15.152-7.58 15.152-15.153h45.452V87.373h-45.452c0-7.574-7.576-15.15-15.152-15.15V26.769H87.374v45.454c-7.576 0-15.152 7.577-15.152 15.15z"/><g id="a" fill="#d0d0d0"><path fill="#96877d" d="M84.536 71.681c2.663 2.663 1.943 7.7-1.607 11.25s-8.587 4.27-11.25 1.607c-2.662-2.662-1.942-7.7 1.608-11.25s8.587-4.27 11.249-1.607"/><path d="m71.143 79.715 1.071-1.072 4.286 2.142-2.143-4.285 1.071-1.072 4.286 8.57-8.571-4.285zm6.429-6.428 1.071-1.071 6.429 6.428L84 79.715z"/></g><use xlink:href="#a" transform="rotate(90 105.555 105.557)"/><use xlink:href="#a" transform="rotate(180 105.555 105.557)"/><use xlink:href="#a" transform="rotate(270 105.555 105.557)"/><g fill="none" stroke="#96877d" stroke-width=".514"><circle cx="105.555" cy="105.557" r="31.822"/><circle cx="105.555" cy="105.557" r="24.245"/></g><circle cx="93.434" cy="131.31" r="1.515"/><circle cx="117.675" cy="131.31" r="1.515"/><path d="M104.55 131.31v1.58h-2.02c-2.02 0-2.02 1.58 0 1.58h2.02v1.58c.007 1.636 1.763 1.835 1.892.137l.128-1.708h2.02c2.02 0 2.02-1.58 0-1.58h-2.02v-1.58c0-1.58-2.02-1.58-2.02 0zM75.954 113.4l2.084-.497-.23-.965q-.079-.332-.263-.452-.183-.12-.63-.067l-.034-.145 1.794-.427.035.144q-.308.078-.435.189a.5.5 0 0 0-.166.262q-.041.153.023.418l.23.966 1.665-.397q.403-.096.52-.178a.36.36 0 0 0 .129-.204.76.76 0 0 0 .008-.382l-.046-.191.145-.035.542 2.275-.144.035-.045-.188q-.078-.329-.305-.431-.148-.064-.625.05l-3.424.816q-.403.096-.52.177a.36.36 0 0 0-.13.2.75.75 0 0 0-.008.383l.045.187-.145.035-.94-3.944 1.153-.329.032.137q-.346.19-.489.366a.8.8 0 0 0-.173.393q-.03.216.068.63l.279 1.17zm-1.342-9.402q.06-1.06.908-1.79.848-.732 2.052-.664 1.24.07 2.014.899.775.828.712 1.94-.063 1.123-.905 1.843c-.842.72-1.264.695-2.11.647q-1.295-.072-2.064-1.001a2.6 2.6 0 0 1-.607-1.874m.288.093q-.04.73.476 1.202.644.588 1.943.66 1.332.076 2.083-.454a1.41 1.41 0 0 0 .61-1.124 1.58 1.58 0 0 0-.526-1.3q-.57-.533-1.858-.606-1.396-.078-2.113.433-.57.41-.615 1.189m7.894-9.951-.517 1.36-3.038.817a9 9 0 0 1-.153.419l-.05.114 1.48.563q.48.183.637.122.22-.08.329-.365l.075-.199.14.053-.831 2.182-.14-.053.073-.191q.123-.323-.034-.542-.087-.123-.522-.29l-3.29-1.252q-.48-.183-.637-.122-.222.084-.331.373l-.073.191-.14-.053.707-1.855q.309-.811.574-1.151t.684-.488c.42-.148.566-.092.86.02q.468.178.698.616.228.438.127 1.134l1.861-.495q.64-.17.905-.365.264-.197.467-.596zM78.8 96.76a4 4 0 0 1 .084-.209q.277-.729.102-1.219a1.08 1.08 0 0 0-.663-.676q-.477-.181-.889.004t-.6.677q-.082.217-.153.616zm11.596-18.053 1.053 1.367-.118.077q-.528-.424-.989-.514-.663-.13-1.304.285-.874.565-.882 1.552-.003.83.52 1.637.423.655 1.026 1.03.602.375 1.175.361a1.9 1.9 0 0 0 1.004-.293 2.2 2.2 0 0 0 .78-.865l-.856-1.322q-.222-.345-.344-.417a.42.42 0 0 0-.266-.057q-.145.015-.423.195l-.083-.129 1.771-1.147.083.129-.084.054q-.263.17-.247.41.013.167.251.536l.907 1.4a4 4 0 0 1-.567.802q-.315.343-.777.642-1.325.859-2.564.454a2.7 2.7 0 0 1-1.469-1.136 2.9 2.9 0 0 1-.459-1.345 2.95 2.95 0 0 1 .29-1.624q.312-.618.997-1.062.249-.162.48-.253.23-.093.694-.196a1.1 1.1 0 0 0 .299-.093.16.16 0 0 0 .071-.13q.007-.09-.094-.267zm8.873.614-2.039.543-.136.926q-.05.342-.01.493.032.12.17.181c.138.061.269.036.527-.013l.038.144-1.658.44-.038-.143q.315-.146.387-.265.148-.239.237-.874l.7-4.827.136-.036 2.998 3.893q.362.47.585.579.222.11.55.043l.038.144-2.078.552-.038-.144q.311-.099.397-.218a.28.28 0 0 0 .053-.247q-.045-.17-.299-.498zm-.185-.258-1.46-1.891-.35 2.372zm9.621-.028.131.033-.523 1.46-4.216-.165.006-.148.204.008q.345.013.503-.206.09-.125.108-.59l.136-3.515q.02-.51-.087-.642-.15-.183-.46-.195l-.204-.008.006-.149 2.466.096-.006.149q-.434-.02-.612.056a.5.5 0 0 0-.247.204q-.07.126-.088.612l-.133 3.421q-.014.334.046.46.045.087.144.13.099.045.625.065l.397.016q.627.024.883-.058a1.15 1.15 0 0 0 .475-.31q.218-.227.446-.724m7.257 1.942.117.068-.907 1.258-4.006-1.325.047-.141.194.064q.33.108.54-.058.12-.096.267-.539l1.104-3.338q.16-.484.094-.642-.093-.218-.387-.314l-.195-.065.047-.141 2.343.775-.047.14q-.411-.138-.603-.114a.5.5 0 0 0-.294.127q-.102.102-.254.564l-1.075 3.25q-.105.318-.083.456a.3.3 0 0 0 .102.165q.083.07.583.235l.377.125q.595.196.865.188.27-.007.542-.166.271-.158.63-.572zm5.849 3.097-1.722-1.219-.799.488q-.295.18-.385.308-.072.102-.03.248.042.145.347.396l-.086.121-1.4-.991.086-.122q.314.15.451.128.279-.04.823-.377l4.156-2.554.115.082-1.07 4.796q-.13.578-.071.819.058.24.32.45l-.087.121-1.755-1.242.086-.121q.275.174.422.165a.28.28 0 0 0 .224-.117q.102-.145.191-.549zm.08-.308.518-2.331-2.047 1.25zm6.463 1.191.88 1.188-1.3 5.11 2.525-1.87q.404-.3.437-.465.047-.22-.144-.478l-.113-.152.12-.088 1.13 1.524-.12.088-.115-.155q-.205-.278-.46-.27-.156.006-.524.28l-3.69 2.735-.087-.117 1.387-5.5-2.696 1.999q-.404.3-.44.46-.044.225.145.479l.115.155-.12.088-1.129-1.524.12-.088.112.151q.209.282.462.273.156-.005.524-.278l3.045-2.257a2.6 2.6 0 0 0 .08-.507q-.004-.15-.082-.387a1.3 1.3 0 0 0-.182-.305zm6.87 12.662-1.184.483-.05-.144q.302-.154.414-.274a.8.8 0 0 0 .213-.427 1.15 1.15 0 0 0-.077-.55l-.257-.724-3.925 1.388q-.473.168-.554.312-.109.2-.002.5l.062.177-.14.05-.77-2.178.14-.05.064.182q.115.326.36.392.151.04.583-.112l3.925-1.389-.218-.617q-.127-.36-.234-.493a.75.75 0 0 0-.396-.24q-.254-.067-.612.03l-.05-.144 1.225-.366 1.484 4.194zm-4.313 9.666-.075-1.453 2.448-1.974a9 9 0 0 1-.03-.445v-.125l-1.58.082q-.514.027-.633.146-.17.161-.153.466l.011.213-.148.008-.122-2.332.149-.008.01.205q.02.345.25.482.13.078.595.054l3.516-.183q.513-.027.632-.146.169-.165.153-.475l-.011-.204.149-.008.103 1.982q.045.868-.06 1.285-.106.418-.43.723-.324.304-.793.329a1.27 1.27 0 0 1-.888-.282q-.387-.308-.575-.986l-1.503 1.205q-.517.413-.68.699c-.163.286-.17.435-.187.734zm2.596-4.01q.004.076.005.132l.003.093q.04.778.399 1.156.357.378.879.35.51-.026.812-.361.303-.336.275-.862a3.5 3.5 0 0 0-.109-.626l-2.263.118zm1.495 11.21-.483 1.838-.144-.037.027-.101q.027-.102-.012-.32a.94.94 0 0 0-.164-.42 3.6 3.6 0 0 0-.441-.536l-1.668-1.796-1.322-.347q-.486-.128-.635-.05-.202.104-.286.423l-.045.171-.143-.037.587-2.24.144.038-.05.187q-.087.335.079.527.102.119.545.235l1.247.327 2.588-.867q.456-.154.577-.22t.333-.318a.5.5 0 0 0 .098-.215l.143.038-.591 2.254-.144-.037.03-.117a.7.7 0 0 0 .004-.359.29.29 0 0 0-.217-.22q-.14-.037-.567.104l-1.988.654 1.354 1.46q.305.33.483.377a.36.36 0 0 0 .386-.132.8.8 0 0 0 .13-.302z"/><g fill="#96877d" stroke="#000" stroke-width=".203"><path d="M122.85 110.19c.532-.135 1.41-.026 1.41-.026s.076.365-.155.487c.257.148 1.18.103 1.18.103s-.36.275-.539.384c.333.032.743.461.743.461s-.769.128-1.102-.051c.205.41.18.769.18.769s-1.243-.308-1.691-1.128m-2.106-1.699c-.301.743-2.51-.64-2.51-.64s.973 1.543 2.433 1.716M93.181 123.66h25.877l1.998-1.589-3.33-1.793-5.125-1.742-2.05-1.127-3.791.204-3.177 1.691-4.356.513-1.025 1.178-3.228.257-5.073-.103 8.455 1.333-6.969-.36z"/><path d="M107.12 116.23c-3.241-1.742-4.189 2.55-5.585 3.587 1.883.32 3.305-1.448 4.919-2.306 1.224 3.333 3.151 1.127 3.151 1.127s2.011 3.19 4.689 1.743c.73.55 1.537.05 1.537.05s.974.18 1.179-.256c.512.18 1.076-.46 1.076-.46s1.114.012 1.332-.564c1.653.294 3.843-3.382 3.843-3.382l.666-1.281.974-.205s.064-.64-.461-.615c-.013-.385-.346-.59-.82-.513.09-.23-.256-.41-.256-.41-.923.231-.974 2.563-.974 2.563s-1.614 1.23-2.203 1.537c-.026-1.333-2.255-3.139-1.794-3.997s1.909 1.32 3.177.922c1.268-.397 1.891-2.047 1.947-3.33-.358-.872-1.23-2.306-1.23-2.306l-.82-.052-.717-1.742s-1.511.987-1.486 1.845c.026.858 1.589 1.588 1.589 1.588s-.901.564-1.742.308c-.077.87 1.024.704 1.434.717.205.628.82.974.82.974s.385.96-.615.87c-.999-.089-2.178-2.391-3.587-1.331-1.498 1.127.667 3.177.667 3.177s-1.32.691-2.101 2.46c-3.19-2.691-5.06-1.436-8.609-.718z"/><path d="M102.46 111.67c1.332 1.255.403 3.342.922 3.74.551.423 1.333-.204 1.333-.204 1.396.371 3.894-.41 3.894-.41 1.1.615.665-.293 1.332-.256.59 1.511 2.562 1.23 2.562 1.23s-1.806-1.845-2.92-2.358c-.859.513-3.357.59-3.792.513-.486-.086-.18-.68-.41-1.025.918-.894.192-3.113-.308-3.946-2.036-1.356-4.468.968-2.613 2.716zm-8.861-3.75c-1.676.453-4.583-2.165-5.942-1.16s-.725 3.479.18 4.71c.886 1.205-1.294 1.64-1.883 2.356-.554.673.18 1.45.18 1.45l.617.398-.109.906.326 1.087s.3.262.399-.073c.28.281.03 1.093.725 1.196-.25-.52.18-1.957.18-1.957s1.215.091 1.523-.434c.307-.526-.29-1.667-.29-1.667h.362c-.408-.28-.544-1.123-.544-1.123s1.685-.535 1.667-1.812-2.735-2.636-1.739-3.297c1.105-.734 3.025 1.902 4.674.688 1.632-1.201.58-.036.58-.036s.746-1.678-.906-1.232zm8.651-17.949c-2.242-.935-6.822-.993-9.377-2.255-1.121.07-1.62.955-1.666 1.307-1.172-.058-1.966 1.787-1.793 2.152-2.133-.864-3.126 2.511-2.434 3.203-1.82.077-1.595 2.402-1.768 3.049-.583 1.415.13 1.892 1.281 1.383.173.615-.07.96-.59 1.076 3.158 3.614 4.943-2.223 7.713-2.203 3.458-1.012 4.816-2.716 4.816-2.716l1.358.18z"/><circle cx="105.145" cy="87.384" r="3.305"/><path d="M99.33 113.41c-2.05-.372-5.444-2.498-5.79-5.278 1.908-7.494 11.755-3.58 12.604-9.217-.217-3.719.45-7.4 2.512-10.511.96-1.217 2.203-1.537 2.203-1.537s.223.793-.102 1.332c1.626-.18 3.856.73 5.38.82.448.91.41 1.242.307 1.793s-.717.41-.717.41c-.398.377-.876.761-1.947.564-.807.615-2.511.768-2.511.768s3.561 3.754 2.972 4.92c.743.345 1.845 1.998 1.845 1.998s2.434-1.281 3.228-2.46c1.41 0 3.715 1.474 4.868 1.64 1.41 1.14 2.818 2.306 2.818 2.306s-1.678 1.102-2.408-.359c-.884.077-2.793-2.037-5.432-1.383-.077 2.344-2.664 3.997-2.664 3.997s2.415-.338 3.74.46a139 139 0 0 0 3.382 2.717l1.794 3.074s-1.64.282-2.255-1.845c-.615 1.717-.64-1.063-3.074-2.357-.743.09-1.115.141-1.743-.358-1.755.474-3.83 1.498-6.302 1.23-1.755.55-3.037 2.01-4.817 2.818-1.78.807-2.306.41-2.306.41l-1.435.05c-.207.865-.09 2.179-.87 2.41.499.537-.36 2.83-1.23 3.227.41 1.474 1.61 1.925 2.869 2.665 0 0 1.114-.512 1.844.154s1.486 2.562 1.486 2.562-1.52.103-1.998-.103c-.479-.205-.525-.704-1.076-.563-3.472-3.088-5.302-1.86-5.637-2.562-.342-.72.82-2.6.462-3.792z"/><path d="M90.99 99.655c.181-.226 1.45.254 1.45.254l2.318 1.449 4.71 3.044 1.667 2.427-3.007-.978-4.167-3.587-2.246-1.45s-.906-.933-.725-1.16zm27.86 7.715c-1.627-.41-5.637 4.458-5.637 4.458l3.024 3.28s.09-5.586 2.613-7.738z"/><path d="M99.023 93.789c-.887 1.137-.967 3.429.188 4.353.108 1.391 1.291 4.197 2.22 4.46 1.016.288 5.073 1.23 6.662.974-.304 2.575 1.716 4.641 3.587 5.995-.014.232-.017.514.199.8.21.276 1.192.326 1.235.174.436.613 2.548.882 2.7.609.15-.266-3.105-2.53-3.827-3.222-.613-1.144-1.775-3.694-2.05-5.74-1.597-1.9-4.34-1.862-4.34-1.862l.087-3.723.154-4.202-1.486-.768s.3-.137.461-.308c.361.156 1.04-.57 1.128-.774.341.12.65.12.71-.064.054-.16.115-.879.24-1.25 1.12-.987-.164-3.08-1.878-3.114-1.697-.035-2.077 2.023-2.044 2.18.159.645.125.97 0 1.126-.128.16-.718.513-.718.513s-.948-.449-2.1 0-2.448 1.05-2.512 1.793c-.525.077-1.383.756-1.537 1.333-.461-.09-1.063.294-2.05 1.896-1.767.781-1.87 4.56-1.87 4.56s-.477.695-.5 1.063c-.022.369.167.705.398.64.025.244.346.462.486.385.052.244.403.38.615.346.02.167.702.125.756-.026.06-.166-.067-.996.013-1.063.074-.06.64.372.794.256s-.03-.484-.115-.627c-.077-.128-.564-.27-.679-.871s.307-1.435.307-1.435 1.922-1.512 2.14-2.806c1.447.141 2.213-1.124 2.626-1.601z"/><path d="M95.679 88.37c.439-1.073 2.024-.974 2.024-.974s.567-1.492 2.703-.602c.804-.621 2.92.27 2.92.27s.794-1.057 1.833-.936c1.925.224 2.245 1.989 2.126 2.293-1.053.266-2.879-.856-4.266-.538-.81.458-2.123.942-2.613 1.602-1.284.134-2.655-1.182-4.727-1.115zm4.01 1.781c.48-.295 1.659-.813 2.46-.18.839.904 2.126 1.743 2.126 1.743l1.46.615.667.41-.436 6.687c-1.352-1.383-2.619-1.626-3.587-3.254-.519-.698-.122-2.376-1.025-3.485s-1.864-1.857-1.665-2.536z"/><path d="M103.2 92.082s.765-.145.978.036c.268.09.526.168.598.399.29.086.49.235.49.453.271.072.38.561.38.561l-.254.38s-.29-.271-.326-.56c-.183-.091-.589-.187-.688-.454-.317-.031-.521-.195-.58-.47-.295.067-.598-.345-.598-.345z"/><path d="M109.68 87.717c-.436-.487-1.204-.128-1.204-.128l-2.05 3.536-.897.743-.077 2.767.743 2.587-.256 1.999s1.032-.969 1.153-1.512c.116-.519-.384-2.203-.384-2.203s-.615-1.05.128-2.998c.743-1.947 2.434-3.561 2.844-4.79z"/><path d="M114.74 90.868s-3.2 4.573-8.44 6.2c-1.447.346-.922-3.382-.922-3.382l-.359.103s-.807 3.65 1.127 3.69c5.266-1.038 9.216-6.581 9.216-6.581l-.63-.028zm2.17 26.292s-.487.359-1.127 0c-.333-.769-1.23-.82-1.23-.82s-.578-1.66-1.486-1.178c-.141-.859-1.127-.41-1.127-.41s-.026-1.243-1.179-1.076c.384-1.423-1.589-1.333-1.589-1.333s-.064-1.601-2.972-1.28c6.265-2.806 11.222 4.406 11.222 4.406m2.458 2.301s1.448 1.627 2.203 1.64c.756.013.82-1.589.82-1.589s.244.692.615.513c-.038.486.461.615.461.615s-1.306 3.036-5.021.153m-10.408-.712-.512 2.1s-.654.59-.462.718c.193.128 1.23-.205 1.23-.205s1.614-.192 2.101-.666c.333.756 1.076.82 1.076.82s.051-.32-.051-.512c.359.064.666-.052.666-.052s.205-.589-.256-.82c.051-.435.269-.82-.512-.768-.577.615-1.999 1.32-2.358 1.076-.358-.243 1.41-1.025.923-2.05"/></g></svg>