<svg xmlns="http://www.w3.org/2000/svg" xmlns:xlink="http://www.w3.org/1999/xlink" viewBox="0 0 1200 600"><defs><clipPath id="b"><path d="M0 0h600v300H0z"/></clipPath><clipPath id="c"><path d="m0 0 300 150H0zm300 0h300L300 150zm0 150h300v150zm0 0v150H0z"/></clipPath><g id="d"><g id="a"><path d="M0-.325v.5l1-.5z"/><path d="m.19.263-.293-.405L1-.325z"/></g><use xlink:href="#a" transform="scale(-1 1)"/><use xlink:href="#a" transform="rotate(72 0 0)"/><use xlink:href="#a" transform="rotate(-72 0 0)"/><use xlink:href="#a" transform="rotate(108)scale(1 -1)"/></g></defs><path fill="#012169" d="M0 0h1200v600H0z"/><path stroke="#fff" stroke-width="60" d="m0 0 600 300M0 300 600 0" clip-path="url(#b)"/><path stroke="#c8102e" stroke-width="40" d="m0 0 600 300M0 300 600 0" clip-path="url(#c)"/><path stroke="#fff" stroke-width="100" d="M300 0v300M0 150h600" clip-path="url(#b)"/><path stroke="#c8102e" stroke-width="60" d="M300 0v300M0 150h600" clip-path="url(#b)"/><use xlink:href="#d" fill="#fff" transform="translate(900 120)scale(45.4)"/><use xlink:href="#d" fill="#c8102e" transform="matrix(30 0 0 30 900 120)"/><g transform="rotate(82 900 240)"><use xlink:href="#d" fill="#fff" transform="rotate(-82 519.022 -457.666)scale(40.4)"/><use xlink:href="#d" fill="#c8102e" transform="rotate(-82 519.022 -457.666)scale(25)"/></g><g transform="rotate(82 900 240)"><use xlink:href="#d" fill="#fff" transform="rotate(-82 668.57 -327.666)scale(45.4)"/><use xlink:href="#d" fill="#c8102e" transform="rotate(-82 668.57 -327.666)scale(30)"/></g><use xlink:href="#d" fill="#fff" transform="translate(900 480)scale(50.4)"/><use xlink:href="#d" fill="#c8102e" transform="matrix(35 0 0 35 900 480)"/></svg>