<svg xmlns="http://www.w3.org/2000/svg" xmlns:xlink="http://www.w3.org/1999/xlink" viewBox="0 0 12 6"><path fill="red" d="M0 0h12v6H0z"/><path fill="#005ce5" d="M0 0h12v4H0z"/><path fill="#fff" d="M0 0h12v2H0z"/><g transform="translate(-.106 3.478)scale(.021)"><path fill="#005ce5" fill-rule="evenodd" d="M147.913-115.518c-.64 0-1.277.014-1.913.032-12.37.32-23.983 3.515-32.252 7.41l.001.012c-.904.378-1.79.757-2.632 1.136l2.842 44.519c1.97 23.264 17.131 36.81 33.976 42.128 16.846-5.319 32.006-18.864 33.975-42.128l2.827-44.378a65 65 0 0 0-2.632-1.277v-.011c-8.69-4.095-21.074-7.42-34.15-7.442l-.028-.001z"/><path fill="#fff" fill-rule="evenodd" d="m147.934-84.712-8.314 16.237-5.375-6.983-14.046 18.561c.254 1.153.552 2.265.878 3.35 1.568 2.648 4.583 5.67 8.449 5.67 3.068 0 6.136-2.454 9.204-2.454s6.136 2.455 9.204 2.455 6.136-2.455 9.205-2.455 6.136 2.455 9.204 2.455c3.831 0 6.825-2.967 8.406-5.597q.508-1.671.902-3.448l-14.027-18.537-5.375 6.983zm-9.204 36.836c-3.068 0-6.136 2.454-9.204 2.454-2.428 0-4.514-.86-6.13-2.08a42 42 0 0 0 1.835 3.504c1.265.787 2.704 1.319 4.295 1.319 3.068 0 6.136-2.455 9.204-2.455s6.136 2.455 9.204 2.455 6.136-2.455 9.205-2.455 6.136 2.455 9.204 2.455c1.568 0 2.987-.52 4.24-1.289a42 42 0 0 0 1.835-3.491c-1.609 1.197-3.675 2.037-6.075 2.037-3.068 0-6.136-2.454-9.204-2.454s-6.137 2.454-9.205 2.454-6.136-2.454-9.204-2.454m0 5.197c-3.068 0-6.136 2.454-9.204 2.454-.667 0-1.3-.078-1.914-.196 5.307 7.091 12.549 11.838 20.316 14.567 7.751-2.725 14.982-7.475 20.286-14.555-.6.113-1.22.184-1.871.184-3.068 0-6.136-2.454-9.204-2.454s-6.137 2.454-9.205 2.454-6.136-2.454-9.204-2.454"/><g id="b" fill="#ffe500"><path id="a" fill="#ffe500" fill-rule="evenodd" d="M134.094-109.56h6.96l-3.48 6.027"/><use xlink:href="#a" width="600" height="300" transform="matrix(1 0 0 -1 0 -215.104)"/></g><g fill="#ffe500"><use xlink:href="#b" width="600" height="300" transform="translate(20.72)"/><use xlink:href="#b" width="600" height="300" transform="translate(10.36 13.875)"/></g></g><path fill="red" fill-rule="evenodd" d="m2.282 1.209-.055.023.06.935c.041.489.36.773.713.885.354-.112.672-.396.714-.885l.059-.932-.055-.026-.056.927a.95.95 0 0 1-.662.86.95.95 0 0 1-.662-.86z"/></svg>