<svg xmlns="http://www.w3.org/2000/svg" id="svg30" viewBox="0 0 1260 630"><defs><clipPath id="clip-path"><path fill="none" d="M0 0h1260v630H0z"/></clipPath><style>.cls-8{fill:#ffd200}.cls-4{fill:#d40000}.cls-8{fill-rule:evenodd}</style></defs><path id="path7" fill="#006400" d="M0 0h1260v630H0z"/><path id="path9" fill="#ffd200" d="M0 90h1260v450H0z"/><path id="path11" d="M0 180h1260v270H0z" class="cls-4"/><path id="path13" d="M0 270h1260v90H0z"/><g clip-path="url(#clip-path)"><path id="path15" stroke="#000" stroke-width="30" d="M0 0v630l420-315z"/></g><path id="path17" fill="#fff" d="M0 0v630l420-315z"/><path id="path19" d="m159.78 156.62 83.19 256-217.79-158.2h269.2L76.59 412.65z" class="cls-4"/><path id="path636" d="M152.88 218.67a14.16 14.16 0 0 0-22.58 1.66 39.6 39.6 0 0 0-7.61.56 7.86 7.86 0 0 0-5.93 10.74l8.59-.51a11.53 11.53 0 0 1 5.86 9.7l1 34.13a24.54 24.54 0 0 0-2.45 11 101.5 101.5 0 0 0 1.09 13.7 14.74 14.74 0 0 1-4 12.45 86 86 0 0 0-12.93 17 13.09 13.09 0 0 0 1.14 14.9l9.78 37.86h73.45l4.08-32.12a45.72 45.72 0 0 1 21.18-33.05l2.89.82a4.22 4.22 0 0 0 3.75-7.38l-69.48-54.34-1.83-22.86a24.7 24.7 0 0 0-6-14.26" class="cls-8"/><path id="path638" d="m152.17 219.29-.06-.07 1.41-1.24.06.07zm-.06-.07a16 16 0 0 0-1.22-1.21l1.23-1.42a15 15 0 0 1 1.4 1.39zm0-2.63-.62.71zm-1.22 1.41a13 13 0 0 0-1.36-1l1-1.57a15 15 0 0 1 1.56 1.19zm-1.36-1a13.22 13.22 0 0 0-8.29-2.16l-.13-1.89a15.12 15.12 0 0 1 9.46 2.48zm-8.29-2.16h-.09l-.13-1.88h.09zm-.23-1.88.07.94zm.15 1.88a13 13 0 0 0-1.71.25l-.39-1.85a15 15 0 0 1 1.95-.28zm-1.71.25a13 13 0 0 0-1.64.46l-.63-1.77a15 15 0 0 1 1.88-.54zm-1.64.46a13.22 13.22 0 0 0-6.71 5.32l-1.59-1a15.05 15.05 0 0 1 7.67-6.08zm-6.71 5.32-.82.44v-.95zm-.82.44H130v-1.88h.28l-.05 1.89zm-.25 0h-1v-1.89h1.08zm-1 0h-1l-.07-1.88h1.08zm-1 0a38 38 0 0 0-5.11.53l-.31-1.86a40 40 0 0 1 5.35-.55zm-5.11.53-.42-1.84.31 1.86zm-.36-1.85.16.93-.17-.93zm.33 1.86a7 7 0 0 0-.85.2l-.55-1.8a8 8 0 0 1 1.07-.26zm-.85.2a7 7 0 0 0-.81.31l-.77-1.72a10 10 0 0 1 1-.39zm-1.59-1.41.38.86zm.79 1.72a6.9 6.9 0 0 0-3.19 2.95l-1.65-.91a8.83 8.83 0 0 1 4-3.76zm-4.85 2 .82.45zm1.66.89v.1l-1.66-.9v-.09zm-1.71-.79.83.45-.83-.44zm1.66.88a8 8 0 0 0-.36.79l-1.76-.67a9 9 0 0 1 .46-1zm-2.12.13.88.34-.88-.33zm1.76.66a8 8 0 0 0-.26.83l-1.82-.45a8 8 0 0 1 .32-1zm-2.08.38.91.22zm1.82.44a7 7 0 0 0 .33 4.29l-1.74.71a8.77 8.77 0 0 1-.41-5.44zm-.49 5.59-.92-.59.87-.36zm-.11-1.89 8.59-.51.11 1.89-8.59.51zm8.59-.51.51.12-.45.83zm.51.12.22.13-1 1.62-.17-.1.91-1.65zm.22.13a12.5 12.5 0 0 1 1.48 1l-1.18 1.47a9.4 9.4 0 0 0-1.26-.87zm1.48 1a14 14 0 0 1 1.3 1.22l-1.37 1.28a10 10 0 0 0-1.11-1zm1.3 1.22a12.42 12.42 0 0 1 3.34 8.14h-1.88a10.63 10.63 0 0 0-2.83-6.91zm3.34 8.14 1 34.13-1.88.05-1-34.13zm1 34.13-.09.43-.85-.41h.94zm-.09.43c-.06.12-.14.28-.21.45l-1.71-.79c.06-.14.13-.28.22-.47zm-1.92-.34.85.39zm1.71.78c-.21.46-.41.93-.59 1.4l-1.75-.67c.19-.5.4-1 .63-1.51zm-2.35.73.88.33zm1.76.67c-.18.47-.34.95-.49 1.43l-1.8-.56c.16-.52.34-1 .53-1.54zm-.49 1.43a23.5 23.5 0 0 0-1.07 7.32h-1.88a25.2 25.2 0 0 1 1.15-7.9l1.8.56zm-1.17 7.42v.49h-1.89V286h1.88zm0 .49v1.89l-1.88.07c0-.63 0-1.27-.06-1.93h1.89zm0 1.89q0 .9.09 1.89l-1.89.1c0-.61-.06-1.26-.08-1.92zm.09 1.89q.26 4.69.93 9.3l-1.86.27c-.47-3.15-.79-6.32-1-9.47zm.93 9.3v.05l-1.86.27zm0 .05-.93.13zm0 0a16 16 0 0 1 .16 2h-1.88a15 15 0 0 0-.14-1.79l1.86-.26zm.16 2a15 15 0 0 1-.1 2l-1.75-.22a17 17 0 0 0 .09-1.78h1.88zm-.1 2a15.7 15.7 0 0 1-4.38 9.16l-1.34-1.32a13.82 13.82 0 0 0 3.97-8.06zm-4.38 9.16-.67-.67zm0 0s.16-.21.11-.13l-1.57-1a.7.7 0 0 1 .13-.15zm.11-.13-.11.13-.67-.66zm-.11.13q-1 1-2 2.16l-1.37-1.28c.64-.7 1.33-1.43 2.09-2.2zm-3.43.88.7.64zm1.39 1.27c-.68.75-1.33 1.49-2 2.22l-1.33-1.22c.67-.78 1.34-1.54 2-2.27zm-3.39 1 .72.61zm1.44 1.22a85 85 0 0 0-8.79 12.4l-1.63-.94a87.7 87.7 0 0 1 9-12.68zM113 328.61l.82.47zm1.63.94v.06l-1.64-.94v-.06zm0 .06a12 12 0 0 0-.89 1.91l-1.77-.64a14.3 14.3 0 0 1 1-2.21zm-.89 1.91a11.7 11.7 0 0 0-.54 2l-1.85-.33a14 14 0 0 1 .62-2.3zm-.54 2a12.15 12.15 0 0 0 2.59 9.89l-1.45 1.2a14 14 0 0 1-3-11.42zm2.59 9.89.18.36-.91.24zm.18.36 9.79 37.87-1.82.47-9.79-37.86zm8.88 39.05-.91-.71.91-.24zm0-1.89h73.45v1.89h-73.45zm74.38 1.07-.93.83v-.95zm-1.86-.23 4.07-32.13 1.87.23-4.08 32.13zm5.94-31.9-.93-.11zm-1.87-.23v-.05l1.87.24c0 .25 0-.11 0 0l-1.87-.23zm1.87.19-.93-.12.93.11zm-1.86-.24a47 47 0 0 1 1.1-5.74l1.83.46a45 45 0 0 0-1.07 5.52zm1.1-5.74a49 49 0 0 1 1.79-5.51l1.76.69a45 45 0 0 0-1.72 5.28zm1.79-5.51a46.64 46.64 0 0 1 18.71-22.42l1 1.59a44.74 44.74 0 0 0-18 21.52zm18.71-22.42.76-.11-.26.9zm.76-.11 2.89.82-.51 1.81-2.89-.82zm2.89.82-.26.91zm0 0-.51 1.81zm-.49 1.82.25-.91zm.51-1.82a3 3 0 0 0 .63.11l-.14 1.89a6.6 6.6 0 0 1-1-.18zm.63.11a4 4 0 0 0 .63 0l.22 1.87a5.5 5.5 0 0 1-1 0zm.63 0a3.3 3.3 0 0 0 2.54-1.77l1.68.85a5.17 5.17 0 0 1-4 2.79zm4.22-.93-.84-.43zm-1.69-.84 1.68.84zm0 0a3 3 0 0 0 .23-.6l1.81.5a5.4 5.4 0 0 1-.36.94zm2.05-.11-.9-.25zm-1.82-.49a3.2 3.2 0 0 0 .1-.62l1.89.14a5 5 0 0 1-.17 1zm2-.49-.94-.07zm-1.89-.13a3.28 3.28 0 0 0-1.24-2.83l1.15-1.48a5.15 5.15 0 0 1 2 4.44zm-1.24-2.83-69.49-54.33 1.16-1.49 69.48 54.34zm-69.49-54.33-.36-.67.94-.08zm-.36-.67L157.94 233l1.89-.15 1.83 22.87zM157.94 233v-.08l1.89-.15v.08zm1.88-.23-.94.08zm-1.88.15c-.06-.74-.15-1.44-.27-2.11l1.86-.31c.13.78.23 1.54.29 2.27zm-.27-2.11a21 21 0 0 0-.46-2.06l1.82-.49c.2.73.37 1.48.5 2.24zm-.46-2.06a23.7 23.7 0 0 0-5-9.46l1.42-1.24a25.6 25.6 0 0 1 5.37 10.21"/><path id="path870" d="m152.69 280.72-1.81-.55v-.11l1.78.62zm0 0-.9-.29zm0 0a13 13 0 0 0-.41 1.5l-1.84-.38a13 13 0 0 1 .46-1.71zm-.41 1.5a12 12 0 0 0-.23 1.53l-1.87-.17a14 14 0 0 1 .26-1.74zm-.23 1.53a13.55 13.55 0 0 0 1.51 7.63l-1.67.88a15.56 15.56 0 0 1-1.71-8.68zm1.51 7.63-1.67.88zm0 0a11 11 0 0 0 .81 1.34l-1.56 1.06a17 17 0 0 1-.92-1.52zm.81 1.34a14 14 0 0 0 .94 1.23l-1.42 1.22a14 14 0 0 1-1.08-1.39zm.94 1.23a13.65 13.65 0 0 0 6.6 4.19l-.51 1.82a15.45 15.45 0 0 1-7.51-4.79"/><path id="path872" d="m161.24 256.57-28.52 19.49-1.07-1.55L160.18 255"/><path id="path874" d="M145.54 225.66a3.74 3.74 0 1 0-3.74 3.74 3.74 3.74 0 0 0 3.74-3.74" class="cls-8"/><path id="path876" d="M144.6 225.66a2.75 2.75 0 0 0-.82-2l1.33-1.34a4.67 4.67 0 0 1 1.38 3.31zm-.82-2a2.75 2.75 0 0 0-2-.82V221a4.66 4.66 0 0 1 3.29 1.37l-1.32 1.34zm-2-.82V221zm0 0V221zm0 0a2.75 2.75 0 0 0-2 .82l-1.33-1.33a4.65 4.65 0 0 1 3.3-1.38zm-2 .82a2.83 2.83 0 0 0-.82 2h-1.88a4.6 4.6 0 0 1 1.37-3.29l1.33 1.32zm-.82 2h-1.88zm0 0a2.8 2.8 0 0 0 .82 2l-1.29 1.34a4.7 4.7 0 0 1-1.37-3.31zm.82 2a2.83 2.83 0 0 0 2 .82v1.88a4.66 4.66 0 0 1-3.29-1.37l1.33-1.33zm2 .82v1.88zm0 0v1.88zm0 0a2.83 2.83 0 0 0 2-.82l1.34 1.32a4.67 4.67 0 0 1-3.31 1.38zm2-.82a2.8 2.8 0 0 0 .82-2h1.89a4.72 4.72 0 0 1-1.37 3.29l-1.34-1.33zm.82-2h1.89"/><path id="path878" d="M138 315h.07l.84 1.69h-.06zm.91 1.65-.42-.84zM138 315a15 15 0 0 0 2.17-1.34l1.12 1.51a16.4 16.4 0 0 1-2.45 1.51zm2.17-1.34a15 15 0 0 0 1.93-1.66l1.35 1.31a16.5 16.5 0 0 1-2.12 1.86zm1.93-1.66a15.08 15.08 0 0 0 4.14-11.74l1.89-.16a17 17 0 0 1-4.68 13.21"/><path id="path880" d="M150.92 295.09h-.07l-.84-1.69h.07zm-.92-1.65.42.85zm.86 1.68a4.3 4.3 0 0 0-.73.45l-1.13-1.51a6.6 6.6 0 0 1 1-.62zm-.73.45a5 5 0 0 0-.63.56l-1.36-1.3a8 8 0 0 1 .86-.77zm-.63.56a5.07 5.07 0 0 0-1.37 3.94l-1.89.16a6.92 6.92 0 0 1 1.9-5.4"/><path id="path882" d="m161.51 322.76-.7-1.74zm0 0-3 1.24-.72-1.74 3-1.24zm-3 1.24c-1 .41-2 .84-3 1.26l-.74-1.73c1-.43 2-.86 3-1.27zm-3 1.26q-7.69 3.28-15.23 7l-.83-1.69q7.56-3.71 15.32-7"/><path id="path884" d="m160.82 321 .68 1.76zm.73 1.74-.34-.87zm-.71-1.75a22 22 0 0 0 3.06-1.5l.95 1.63a26 26 0 0 1-3.3 1.62zm3.06-1.5a23 23 0 0 0 2.78-1.89l1.18 1.48a27 27 0 0 1-3 2zm2.78-1.89a24 24 0 0 0 8.72-14.48l1.85.34a25.8 25.8 0 0 1-9.39 15.62"/><path id="path886" d="M151.54 325h61.3v1.89h-61.3"/><path id="path888" d="M165.67 337.44a7.11 7.11 0 1 0-7.11 7.11 7.11 7.11 0 0 0 7.11-7.11" class="cls-8"/><path id="path890" d="M164.73 337.44a6.16 6.16 0 0 0-1.81-4.35l1.33-1.34a8 8 0 0 1 2.36 5.69zm-.48-5.69-.67.67zm-1.33 1.34a6.13 6.13 0 0 0-4.34-1.8v-1.89a8 8 0 0 1 5.67 2.35zm-4.34-1.8v-1.89zm0 0v-1.89zm0 0a6.14 6.14 0 0 0-4.36 1.8l-1.33-1.33a8 8 0 0 1 5.69-2.36zm-4.36 1.8a6.13 6.13 0 0 0-1.8 4.34h-1.89a8.07 8.07 0 0 1 2.36-5.67zm-1.8 4.34h-1.89zm0 0a6.14 6.14 0 0 0 1.8 4.35l-1.32 1.34a8.1 8.1 0 0 1-2.37-5.69zm1.8 4.35a6.15 6.15 0 0 0 4.35 1.8v1.89a8 8 0 0 1-5.67-2.35zm4.35 1.8v1.89zm0 0v1.89zm0 0a6.14 6.14 0 0 0 4.35-1.8l1.34 1.33a8.06 8.06 0 0 1-5.69 2.36zm5.69-.47-.67-.67.67.66zm-1.34-1.33a6.18 6.18 0 0 0 1.81-4.34h1.88a8 8 0 0 1-2.35 5.67zm1.81-4.34h1.88"/><path id="path892" d="M194 337.44a7.11 7.11 0 1 0-7.11 7.11 7.12 7.12 0 0 0 7.11-7.11" class="cls-8"/><path id="path894" d="M193 337.44a6.12 6.12 0 0 0-1.81-4.35l1.34-1.34a8.06 8.06 0 0 1 2.36 5.69zm-.47-5.69-.67.67.66-.67zm-1.33 1.34a6.13 6.13 0 0 0-4.34-1.8v-1.89a8 8 0 0 1 5.67 2.35zm-4.34-1.8v-1.89zm0 0v-1.89zm0 0a6.14 6.14 0 0 0-4.35 1.8l-1.34-1.33a8.06 8.06 0 0 1 5.69-2.36zm-4.35 1.8a6.13 6.13 0 0 0-1.8 4.34h-1.89a8 8 0 0 1 2.35-5.67zm-1.8 4.34h-1.89zm0 0a6.14 6.14 0 0 0 1.8 4.35l-1.33 1.34a8 8 0 0 1-2.36-5.69zm1.8 4.35a6.13 6.13 0 0 0 4.34 1.8v1.89a8 8 0 0 1-5.67-2.35zm4.34 1.8v1.89zm0 0v1.89zm0 0a6.15 6.15 0 0 0 4.35-1.8l1.33 1.33a8 8 0 0 1-5.68 2.36zm5.68-.47-.66-.67.66.66zm-1.33-1.33a6.13 6.13 0 0 0 1.8-4.34h1.89a8 8 0 0 1-2.36 5.67zm1.8-4.34h1.89"/><path id="path896" d="m172.41 312.32 1 .28-.48 1.82-1-.29zm1 .28c.53.14 1 .27 1.51.38l-.41 1.83c-.55-.12-1.08-.25-1.58-.39zm1.51.38c.51.11 1 .22 1.52.31l-.34 1.85q-.81-.15-1.59-.33zm1.52.31a38.5 38.5 0 0 0 7.21.63v1.89a41 41 0 0 1-7.56-.67"/><path id="path898" d="M183.64 313.92c.33 0 .65 0 1-.05l.19 1.88c-.39 0-.77.06-1.13.06v-1.89zm1-.05.09.94-.1-.94zm0 0a11 11 0 0 0 1.58-.28l.48 1.82a13 13 0 0 1-1.88.34zm1.58-.28a10 10 0 0 0 1.49-.53l.76 1.73a12 12 0 0 1-1.77.62zm1.49-.53a10.1 10.1 0 0 0 5.2-5.2l1.72.75a12 12 0 0 1-6.16 6.18"/><path id="path900" d="m223.29 317.6-61.9-17.6.51-1.82 61.9 17.57"/><path id="path902" d="M116.3 347.88h86.2v1.88h-86.2"/><path id="path904" d="M136.2 366.61h63.91v1.88H136.2"/><path id="path906" d="m166.08 360.2-7 6.88-1.32-1.34 7-6.88"/><path id="path908" d="m152.79 359.53 7 6.88-1.32 1.34-7-6.88"/><path id="path910" d="m153.45 360.2-7 6.88-1.32-1.34 7-6.88"/><path id="path912" d="m140.16 359.53 7 6.88-1.32 1.34-7-6.88"/><path id="path914" d="m178.71 360.2-7 6.88-1.32-1.34 7-6.88"/><path id="path916" d="m165.42 359.53 7 6.21-1.32 1.34-7-6.21"/><path id="path918" d="m191.34 360.2-7 6.88-1.34-1.34 7-6.88"/><path id="path920" d="m178.05 359.53 7 6.21-1.31 1.34-7-6.21"/><path id="path922" d="m201.47 362.68-4.48 4.4-1.31-1.34 4.47-4.4"/><path id="path924" d="m190.68 359.53 7 6.88-1.31 1.34-7-6.88"/><path id="path926" d="m166.08 350.63-7 6.88-1.32-1.34 7-6.88"/><path id="path928" d="m152.79 350 7 6.88-1.32 1.34-7-6.88"/><path id="path930" d="m153.45 350.63-7 6.88-1.32-1.34 7-6.88"/><path id="path932" d="m140.16 350 7 6.88-1.32 1.34-7-6.88"/><path id="path934" d="m178.71 350.63-7 6.88-1.32-1.34 7-6.88"/><path id="path936" d="m165.42 350 7 6.88-1.32 1.34-7-6.88"/><path id="path938" d="m191.34 350.63-7 6.88-1.34-1.34 7-6.88"/><path id="path940" d="m178.05 350 7 6.88-1.31 1.34-7-6.88"/><path id="path942" d="m202.86 351.75-5.86 5.76-1.31-1.34 5.86-5.76"/><path id="path944" d="m190.68 350 7 6.88-1.31 1.34-7-6.88"/><path id="path946" d="m133.66 231.57-8.25.49-.11-1.89 8.25-.49"/><path id="path948" d="M138.8 316.69 138 315l.81 1.7zM138 315l.41.85zm.84 1.69a28 28 0 0 0-4.47 2.79l-1.15-1.5a30.7 30.7 0 0 1 4.78-3zm-4.47 2.79a27.4 27.4 0 0 0-3.79 3.5l-1.4-1.26a30 30 0 0 1 4-3.74zm-3.79 3.5a27.88 27.88 0 0 0-6.58 24.63l-1.84.4a29.75 29.75 0 0 1 6.93-26.28"/><path id="path950" d="m140.25 332.24-.12.06-.82-1.7.11-.05zm-.95-1.63.41.85zm.84 1.69a17 17 0 0 0-2.27 1.37l-1.11-1.52a17.7 17.7 0 0 1 2.54-1.54zm-2.27 1.37a16 16 0 0 0-2 1.7l-1.34-1.32a17.4 17.4 0 0 1 2.21-1.9zm-2 1.7a16.52 16.52 0 0 0-4.62 12.3l-1.86.06a18.3 18.3 0 0 1 5.14-13.68"/><path id="path952" d="m118.12 338.77-1.77-.12zm-1.79.57 1.8-.56-1.78-.13zm1.8-.56c.13.46.29.91.46 1.36l-1.75.68c-.19-.49-.36-1-.51-1.48zm.46 1.36c.17.44.37.88.57 1.3l-1.68.83a16 16 0 0 1-.64-1.45zm.57 1.3a16.55 16.55 0 0 0 4.55 5.63l-1.17 1.48a18.3 18.3 0 0 1-5.06-6.28"/><path id="path954" d="m118.08 339.4-2.16 5-1.73-.75 2.16-5"/><path id="path956" d="m122.2 348 .09-.64 1.68.84zm1.77.2-1.67-.85zm-1.67-.85c.23-.45.45-.88.66-1.31l1.69.83-.68 1.35zm.66-1.31.63-1.31 1.7.78c-.24.52-.45 1-.64 1.36zm.63-1.31a57 57 0 0 0 2.67-7l1.79.55a57 57 0 0 1-2.76 7.23"/><path id="path958" d="m129.41 347.73 1.83-.42zm1.83-.45-.92.21zm-1.84.43c-.11-.49-.23-.95-.33-1.34l1.82-.47c.13.5.25 1 .35 1.38zm-.33-1.34c-.1-.38-.22-.82-.37-1.33l1.82-.52c.11.39.23.85.37 1.38zm1.44-1.85-.91.26.9-.26zm-1.8.52a54 54 0 0 0-2.41-6.64v-.66l1.76-.1a54 54 0 0 1 2.49 6.88"/><path id="path960" d="m138 381.66-2.73-14.05 1.85-.36 2.73 14.05"/><path id="path962" d="m135.31 367.85-6.41-18.73 1.78-.6 6.41 18.73"/><path id="path964" d="m140.82 360.2-5 4.95-1.32-1.34 5-4.95"/><path id="path966" d="m140.82 350.63-7.46 7.37-1.36-1.35 7.46-7.36"/></svg>